<svg width="48" height="49" viewBox="0 0 48 49" fill="none" xmlns="http://www.w3.org/2000/svg">
<rect y="0.485413" width="48" height="48" rx="10" fill="#EF5DA8"/>
<path d="M18.0944 23.7142C18.0322 23.3136 18 22.9033 18 22.4854C18 18.0671 21.6052 14.4854 26.0526 14.4854C30.4999 14.4854 34.1052 18.0671 34.1052 22.4854C34.1052 23.4835 33.9213 24.4389 33.5852 25.3199C33.5154 25.5029 33.4804 25.5944 33.4646 25.6658C33.4489 25.7366 33.4428 25.7864 33.4411 25.8589C33.4394 25.932 33.4493 26.0126 33.4692 26.1737L33.8717 29.4439C33.9153 29.7979 33.9371 29.9749 33.8782 30.1036C33.8266 30.2164 33.735 30.3059 33.6211 30.3549C33.4911 30.4108 33.3146 30.385 32.9617 30.3332L29.7765 29.8663C29.6101 29.8419 29.527 29.8298 29.4512 29.8302C29.3763 29.8306 29.3245 29.8361 29.2511 29.8516C29.177 29.8671 29.0823 29.9026 28.893 29.9735C28.0097 30.3044 27.0524 30.4854 26.0526 30.4854C25.6344 30.4854 25.2237 30.4537 24.8227 30.3927M19.6316 34.4854C22.5965 34.4854 25 32.023 25 28.9854C25 25.9478 22.5965 23.4854 19.6316 23.4854C16.6667 23.4854 14.2632 25.9478 14.2632 28.9854C14.2632 29.596 14.3603 30.1834 14.5395 30.7321C14.6153 30.9641 14.6532 31.0801 14.6657 31.1594C14.6786 31.2421 14.6809 31.2885 14.6761 31.3721C14.6714 31.4522 14.6514 31.5427 14.6113 31.7237L14 34.4854L16.9948 34.0764C17.1583 34.0541 17.24 34.0429 17.3114 34.0434C17.3865 34.0439 17.4264 34.048 17.5001 34.0627C17.5701 34.0766 17.6742 34.1134 17.8823 34.1868C18.4306 34.3803 19.0191 34.4854 19.6316 34.4854Z" stroke="white" stroke-width="2" stroke-linecap="round" stroke-linejoin="round"/>
</svg>
