<svg width="266" height="265" viewBox="0 0 266 265" fill="none" xmlns="http://www.w3.org/2000/svg">
<mask id="mask0_1116_36522" style="mask-type:luminance" maskUnits="userSpaceOnUse" x="17" y="3" width="249" height="263">
<path d="M17.2812 3.99512H265.885V265H17.2812V3.99512Z" fill="white"/>
</mask>
<g mask="url(#mask0_1116_36522)">
<mask id="mask1_1116_36522" style="mask-type:luminance" maskUnits="userSpaceOnUse" x="-18" y="-37" width="311" height="315">
<path d="M74.3491 -36.0483L292.698 54.468L200.427 277.791L-17.9219 187.275L74.3491 -36.0483Z" fill="white"/>
</mask>
<g mask="url(#mask1_1116_36522)">
<mask id="mask2_1116_36522" style="mask-type:luminance" maskUnits="userSpaceOnUse" x="-18" y="-37" width="311" height="315">
<path d="M74.3491 -36.0483L292.698 54.468L200.427 277.791L-17.9219 187.275L74.3491 -36.0483Z" fill="white"/>
</mask>
<g mask="url(#mask2_1116_36522)">
<path d="M18.201 190.776C17.8946 191.847 17.5882 192.997 17.9932 194.058C18.497 195.384 19.9303 196.118 21.2389 196.726L157.111 259.689C162.33 262.113 167.892 264.589 173.568 264.012C184.629 262.883 190.508 251.309 194.491 241.254L263.585 66.6713C264.344 64.7363 265.123 62.7232 264.951 60.6373C264.406 53.953 255.63 51.581 248.811 50.7383C223.37 47.5912 198.459 40.8445 174.259 32.3447C162.242 28.1313 150.381 23.4705 138.613 18.5912C128.295 14.3101 116.958 7.16288 105.886 5.35265C83.6029 1.7114 83.3069 27.7308 78.4461 42.6911C70.5266 67.0875 59.7042 90.3655 49.048 113.638C37.5193 138.82 25.9647 164.122 18.201 190.776Z" fill="#C0BAF2"/>
</g>
</g>
</g>
<mask id="mask3_1116_36522" style="mask-type:luminance" maskUnits="userSpaceOnUse" x="0" y="0" width="241" height="247">
<path d="M0 0H240.628V246.357H0V0Z" fill="white"/>
</mask>
<g mask="url(#mask3_1116_36522)">
<mask id="mask4_1116_36522" style="mask-type:luminance" maskUnits="userSpaceOnUse" x="-18" y="-37" width="311" height="315">
<path d="M74.353 -36.0485L292.702 54.4679L200.431 277.791L-17.918 187.275L74.353 -36.0485Z" fill="white"/>
</mask>
<g mask="url(#mask4_1116_36522)">
<mask id="mask5_1116_36522" style="mask-type:luminance" maskUnits="userSpaceOnUse" x="-18" y="-37" width="311" height="315">
<path d="M74.355 -36.0485L292.704 54.4679L200.433 277.791L-17.916 187.275L74.355 -36.0485Z" fill="white"/>
</mask>
<g mask="url(#mask5_1116_36522)">
<path d="M73.2472 1.22754L240.595 70.6038L168.172 245.888L0.824219 176.517L73.2472 1.22754Z" fill="#ADA5EE"/>
</g>
</g>
</g>
<mask id="mask6_1116_36522" style="mask-type:luminance" maskUnits="userSpaceOnUse" x="132" y="10" width="37" height="62">
<path d="M132.943 10.6533H168.838V71.9096H132.943V10.6533Z" fill="white"/>
</mask>
<g mask="url(#mask6_1116_36522)">
<mask id="mask7_1116_36522" style="mask-type:luminance" maskUnits="userSpaceOnUse" x="-18" y="-37" width="311" height="315">
<path d="M74.3512 -36.0485L292.7 54.4679L200.429 277.791L-17.9198 187.275L74.3512 -36.0485Z" fill="white"/>
</mask>
<g mask="url(#mask7_1116_36522)">
<mask id="mask8_1116_36522" style="mask-type:luminance" maskUnits="userSpaceOnUse" x="-18" y="-37" width="311" height="315">
<path d="M74.3512 -36.0485L292.7 54.4679L200.429 277.791L-17.9198 187.275L74.3512 -36.0485Z" fill="white"/>
</mask>
<g mask="url(#mask8_1116_36522)">
<path d="M153.731 24.3443C154.884 22.326 156.177 20.3961 157.6 18.5547C158.836 17.0149 160.316 15.5116 162.123 14.7834C162.886 14.4557 163.681 14.3204 164.512 14.3672C164.377 14.3568 164.46 14.3464 164.574 14.4713C164.704 14.5961 164.818 14.7314 164.922 14.8822C165.218 15.3036 165.436 15.7613 165.571 16.2607C165.623 16.4688 165.634 16.682 165.675 16.8901C165.712 17.0982 165.68 17.1138 165.696 16.9733C165.654 17.1762 165.597 17.3739 165.525 17.5663L164.808 20.032C164.351 21.5665 163.889 23.0958 163.416 24.6252C159.698 36.6985 155.263 48.6626 148.637 59.4668C146.087 63.6386 142.524 68.3514 137.118 68.2214L138.188 68.8352C136.474 66.0782 137.103 62.8063 138.157 59.9141C139.351 56.6422 141.122 53.5939 142.244 50.3272C142.898 48.439 140.037 47.2425 139.382 49.1412C137.425 54.8008 133.062 60.5019 134.153 66.8013C134.413 68.3046 135.16 71.2384 136.978 71.358C138.744 71.4361 140.442 71.124 142.067 70.4269C145.136 69.1161 147.484 66.588 149.462 63.9663C150.849 61.9948 152.106 59.9401 153.232 57.8022C154.359 55.8151 155.424 53.7812 156.411 51.7109C158.405 47.6431 160.165 43.4556 161.765 39.2162C163.401 34.8571 164.865 30.4304 166.236 25.9932C166.916 23.7877 167.571 21.5821 168.22 19.3662C168.609 18.383 168.77 17.3635 168.708 16.3075C168.568 15.3244 168.235 14.4089 167.716 13.5662C167.254 12.6871 166.584 12.016 165.712 11.5427C164.855 11.215 163.977 11.1421 163.079 11.3294C161.303 11.6051 159.713 12.3125 158.311 13.4413C155.284 15.7925 153.217 19.1893 151.285 22.4352C151.041 22.7785 150.942 23.1583 150.994 23.5796C151.046 24.001 151.233 24.3443 151.555 24.6148C151.721 24.7396 151.898 24.8332 152.1 24.8853C152.298 24.9373 152.495 24.9529 152.698 24.9269C152.9 24.9009 153.092 24.8384 153.274 24.7344C153.451 24.6356 153.601 24.5055 153.731 24.3443Z" fill="#C1997E"/>
</g>
</g>
</g>
<mask id="mask9_1116_36522" style="mask-type:luminance" maskUnits="userSpaceOnUse" x="118" y="154" width="114" height="105">
<path d="M118.324 154.472H231.326V258.342H118.324V154.472Z" fill="white"/>
</mask>
<g mask="url(#mask9_1116_36522)">
<mask id="mask10_1116_36522" style="mask-type:luminance" maskUnits="userSpaceOnUse" x="-18" y="-37" width="311" height="315">
<path d="M74.353 -36.0483L292.702 54.468L200.431 277.791L-17.918 187.275L74.353 -36.0483Z" fill="white"/>
</mask>
<g mask="url(#mask10_1116_36522)">
<mask id="mask11_1116_36522" style="mask-type:luminance" maskUnits="userSpaceOnUse" x="-18" y="-37" width="311" height="315">
<path d="M74.353 -36.0483L292.702 54.468L200.431 277.791L-17.918 187.275L74.353 -36.0483Z" fill="white"/>
</mask>
<g mask="url(#mask11_1116_36522)">
<path d="M135.913 240.156C168.152 227.641 196.086 203.114 212.693 172.757" stroke="#FF968A" stroke-width="1.23973" stroke-miterlimit="10"/>
</g>
</g>
</g>
<mask id="mask12_1116_36522" style="mask-type:luminance" maskUnits="userSpaceOnUse" x="208" y="151" width="20" height="31">
<path d="M208.725 151.809H227.337V181.106H208.725V151.809Z" fill="white"/>
</mask>
<g mask="url(#mask12_1116_36522)">
<mask id="mask13_1116_36522" style="mask-type:luminance" maskUnits="userSpaceOnUse" x="-18" y="-37" width="311" height="315">
<path d="M74.353 -36.0483L292.702 54.468L200.431 277.791L-17.918 187.275L74.353 -36.0483Z" fill="white"/>
</mask>
<g mask="url(#mask13_1116_36522)">
<mask id="mask14_1116_36522" style="mask-type:luminance" maskUnits="userSpaceOnUse" x="-18" y="-37" width="311" height="315">
<path d="M74.353 -36.0483L292.702 54.468L200.431 277.791L-17.918 187.275L74.353 -36.0483Z" fill="white"/>
</mask>
<g mask="url(#mask14_1116_36522)">
<path d="M209.282 180.055C208.814 174.255 210.362 168.294 213 162.91C214.812 159.232 217.341 155.612 221.018 153.77C222.036 153.162 223.127 152.979 224.29 153.219C225.915 153.723 226.59 155.658 226.419 157.385C226.113 160.246 224.067 162.665 222.114 164.892L209.027 179.758L210.17 178.297" fill="#7A6DE4"/>
</g>
</g>
</g>
<mask id="mask15_1116_36522" style="mask-type:luminance" maskUnits="userSpaceOnUse" x="194" y="163" width="31" height="32">
<path d="M194.098 163.794H224.675V194.422H194.098V163.794Z" fill="white"/>
</mask>
<g mask="url(#mask15_1116_36522)">
<mask id="mask16_1116_36522" style="mask-type:luminance" maskUnits="userSpaceOnUse" x="-18" y="-37" width="311" height="315">
<path d="M74.3494 -36.0486L292.698 54.4678L200.427 277.791L-17.9216 187.275L74.3494 -36.0486Z" fill="white"/>
</mask>
<g mask="url(#mask16_1116_36522)">
<mask id="mask17_1116_36522" style="mask-type:luminance" maskUnits="userSpaceOnUse" x="-18" y="-37" width="311" height="315">
<path d="M74.3494 -36.0486L292.698 54.4678L200.427 277.791L-17.9216 187.275L74.3494 -36.0486Z" fill="white"/>
</mask>
<g mask="url(#mask17_1116_36522)">
<path d="M195.692 167.31C196.071 165.828 196.887 164.111 198.398 163.893C202.542 172.247 201.452 182.328 200.268 191.821C202.838 189.605 205.674 187.8 208.774 186.411C211.869 185.022 215.099 184.102 218.464 183.654C219.627 183.425 220.77 183.488 221.902 183.841C222.452 184.029 222.894 184.367 223.226 184.851C223.553 185.334 223.699 185.87 223.668 186.453C223.501 187.712 222.328 188.549 221.211 189.199C215.961 192.123 203.134 197.314 198.715 191.701C194.29 186.094 194.015 174.01 195.692 167.31Z" fill="#7A6DE4"/>
</g>
</g>
</g>
<mask id="mask18_1116_36522" style="mask-type:luminance" maskUnits="userSpaceOnUse" x="179" y="162" width="12" height="48">
<path d="M179.471 162.462H190.106V209.07H179.471V162.462Z" fill="white"/>
</mask>
<g mask="url(#mask18_1116_36522)">
<mask id="mask19_1116_36522" style="mask-type:luminance" maskUnits="userSpaceOnUse" x="-18" y="-37" width="311" height="315">
<path d="M74.351 -36.0483L292.7 54.468L200.429 277.791L-17.92 187.275L74.351 -36.0483Z" fill="white"/>
</mask>
<g mask="url(#mask19_1116_36522)">
<mask id="mask20_1116_36522" style="mask-type:luminance" maskUnits="userSpaceOnUse" x="-18" y="-37" width="311" height="315">
<path d="M74.3529 -36.0483L292.702 54.468L200.431 277.791L-17.9181 187.275L74.3529 -36.0483Z" fill="white"/>
</mask>
<g mask="url(#mask20_1116_36522)">
<path d="M181.542 175.857C182.02 171.909 182.799 167.805 184.897 164.829C185.136 164.439 185.452 164.127 185.847 163.893C186.777 163.44 187.753 164.304 188.34 165.313C189.757 167.779 189.913 171.118 189.778 174.229C189.628 178.364 189.119 182.484 188.615 186.583L187.353 196.815C187.13 198.927 186.803 201.018 186.366 203.094C185.998 204.691 184.98 210.558 183.048 208.353C181.594 206.678 181.537 200.623 181.287 198.193C180.55 190.739 180.633 183.296 181.542 175.857Z" fill="#7A6DE4"/>
</g>
</g>
</g>
<mask id="mask21_1116_36522" style="mask-type:luminance" maskUnits="userSpaceOnUse" x="184" y="198" width="48" height="16">
<path d="M184.795 198.417H231.325V213.065H184.795V198.417Z" fill="white"/>
</mask>
<g mask="url(#mask21_1116_36522)">
<mask id="mask22_1116_36522" style="mask-type:luminance" maskUnits="userSpaceOnUse" x="-18" y="-37" width="311" height="315">
<path d="M74.3529 -36.0483L292.702 54.468L200.431 277.791L-17.9181 187.275L74.3529 -36.0483Z" fill="white"/>
</mask>
<g mask="url(#mask22_1116_36522)">
<mask id="mask23_1116_36522" style="mask-type:luminance" maskUnits="userSpaceOnUse" x="-18" y="-37" width="311" height="315">
<path d="M74.3529 -36.0483L292.702 54.468L200.431 277.791L-17.9181 187.275L74.3529 -36.0483Z" fill="white"/>
</mask>
<g mask="url(#mask23_1116_36522)">
<path d="M219.099 199.093C222.168 198.573 225.31 198.141 228.078 198.937C229.018 199.208 230.01 199.738 230.072 200.893C230.129 202.048 229.163 203.276 228.239 204.113C224.427 207.567 219.8 209.242 215.371 210.314C206.781 212.504 198.119 212.857 189.379 211.38C188.33 211.187 184.508 211.125 184.929 209.408C185.354 207.692 189.062 207.016 190.215 206.605C194.78 205.003 199.36 203.593 203.94 202.376C208.988 201.065 214.036 199.972 219.099 199.093Z" fill="#7A6DE4"/>
</g>
</g>
</g>
<mask id="mask24_1116_36522" style="mask-type:luminance" maskUnits="userSpaceOnUse" x="168" y="219" width="44" height="12">
<path d="M168.838 219.724H211.38V230.377H168.838V219.724Z" fill="white"/>
</mask>
<g mask="url(#mask24_1116_36522)">
<mask id="mask25_1116_36522" style="mask-type:luminance" maskUnits="userSpaceOnUse" x="-18" y="-37" width="311" height="315">
<path d="M74.3511 -36.0485L292.7 54.4679L200.429 277.791L-17.9199 187.275L74.3511 -36.0485Z" fill="white"/>
</mask>
<g mask="url(#mask25_1116_36522)">
<mask id="mask26_1116_36522" style="mask-type:luminance" maskUnits="userSpaceOnUse" x="-18" y="-37" width="311" height="315">
<path d="M74.3511 -36.0485L292.7 54.4679L200.429 277.791L-17.9199 187.275L74.3511 -36.0485Z" fill="white"/>
</mask>
<g mask="url(#mask26_1116_36522)">
<path d="M192.09 229.789C184.804 229.56 177.783 227.557 171.198 224.759C170.191 224.338 169.017 223.469 169.443 222.418C169.625 222.028 169.91 221.731 170.295 221.534C171.847 220.587 173.743 220.582 175.519 220.623C186.186 220.852 198.343 220.254 208.682 222.538C213.87 223.687 210.468 226.08 206.719 227.542C201.993 229.269 197.117 230.018 192.09 229.789Z" fill="#7A6DE4"/>
</g>
</g>
</g>
<mask id="mask27_1116_36522" style="mask-type:luminance" maskUnits="userSpaceOnUse" x="162" y="175" width="11" height="47">
<path d="M162.195 175.779H172.831V221.055H162.195V175.779Z" fill="white"/>
</mask>
<g mask="url(#mask27_1116_36522)">
<mask id="mask28_1116_36522" style="mask-type:luminance" maskUnits="userSpaceOnUse" x="-18" y="-37" width="311" height="315">
<path d="M74.353 -36.0483L292.702 54.468L200.431 277.791L-17.918 187.275L74.353 -36.0483Z" fill="white"/>
</mask>
<g mask="url(#mask28_1116_36522)">
<mask id="mask29_1116_36522" style="mask-type:luminance" maskUnits="userSpaceOnUse" x="-18" y="-37" width="311" height="315">
<path d="M74.353 -36.0483L292.702 54.468L200.431 277.791L-17.918 187.275L74.353 -36.0483Z" fill="white"/>
</mask>
<g mask="url(#mask29_1116_36522)">
<path d="M163.206 183.446C163.18 181.933 163.414 180.461 163.902 179.03C164.489 177.61 165.652 176.268 167.038 175.997C168.42 175.727 169.786 176.7 170.393 178.005C170.996 179.311 171.053 180.887 171.094 182.422C171.292 189.642 171.333 196.883 171.219 204.149C171.167 207.874 172.543 216.587 170.289 219.994C167.968 223.49 166.301 214.47 165.776 212.478C164.561 207.718 163.787 202.891 163.45 197.996C163.138 193.855 162.053 187.701 163.206 183.446Z" fill="#7A6DE4"/>
</g>
</g>
</g>
<mask id="mask30_1116_36522" style="mask-type:luminance" maskUnits="userSpaceOnUse" x="148" y="198" width="12" height="37">
<path d="M148.898 198.417H159.534V234.372H148.898V198.417Z" fill="white"/>
</mask>
<g mask="url(#mask30_1116_36522)">
<mask id="mask31_1116_36522" style="mask-type:luminance" maskUnits="userSpaceOnUse" x="-18" y="-37" width="311" height="315">
<path d="M74.3589 -36.0483L292.708 54.468L200.437 277.791L-17.9121 187.275L74.3589 -36.0483Z" fill="white"/>
</mask>
<g mask="url(#mask31_1116_36522)">
<mask id="mask32_1116_36522" style="mask-type:luminance" maskUnits="userSpaceOnUse" x="-18" y="-37" width="311" height="315">
<path d="M74.3572 -36.0483L292.706 54.468L200.435 277.791L-17.9138 187.275L74.3572 -36.0483Z" fill="white"/>
</mask>
<g mask="url(#mask32_1116_36522)">
<path d="M152.025 207.775C152.809 204.784 153.889 201.668 155.795 199.577C156.023 199.296 156.299 199.088 156.626 198.948C157.389 198.703 158.033 199.478 158.371 200.331C159.186 202.402 158.926 205.008 158.495 207.411C157.929 210.615 157.088 213.752 156.257 216.883L154.18 224.691C153.78 226.309 153.297 227.901 152.736 229.466C152.279 230.663 150.861 235.11 149.631 233.181C148.701 231.729 149.319 227.011 149.392 225.118C149.646 219.245 150.524 213.461 152.025 207.775Z" fill="#7A6DE4"/>
</g>
</g>
</g>
<mask id="mask33_1116_36522" style="mask-type:luminance" maskUnits="userSpaceOnUse" x="150" y="231" width="38" height="12">
<path d="M150.229 231.708H187.453V242.362H150.229V231.708Z" fill="white"/>
</mask>
<g mask="url(#mask33_1116_36522)">
<mask id="mask34_1116_36522" style="mask-type:luminance" maskUnits="userSpaceOnUse" x="-18" y="-37" width="311" height="315">
<path d="M74.3511 -36.0483L292.7 54.468L200.429 277.791L-17.9199 187.275L74.3511 -36.0483Z" fill="white"/>
</mask>
<g mask="url(#mask34_1116_36522)">
<mask id="mask35_1116_36522" style="mask-type:luminance" maskUnits="userSpaceOnUse" x="-18" y="-37" width="311" height="315">
<path d="M74.3511 -36.0483L292.7 54.468L200.429 277.791L-17.9199 187.275L74.3511 -36.0483Z" fill="white"/>
</mask>
<g mask="url(#mask35_1116_36522)">
<path d="M178.43 233.259C180.808 233.482 183.218 233.789 185.113 234.954C185.742 235.345 186.36 235.969 186.178 236.848C185.991 237.727 185.025 238.481 184.158 238.944C180.632 240.801 176.877 241.134 173.341 241.093C166.538 241.03 160.057 239.548 153.898 236.655C153.155 236.302 150.34 235.475 151.01 234.252C151.68 233.03 154.547 233.264 155.487 233.191C159.195 232.889 162.871 232.738 166.512 232.738C170.547 232.718 174.52 232.895 178.43 233.259Z" fill="#7A6DE4"/>
</g>
</g>
</g>
<path d="M89.4465 100.718L89.3945 101.145L89.6126 101.41L89.8983 101.556L90.537 101.764L91.1031 102.029L91.6743 102.227L91.9392 102.383L92.2767 102.487L95.2004 103.688L95.538 103.652L95.8859 103.262L96.3585 102.055L96.4052 101.556L96.2079 101.27L95.8859 101.176L95.5847 101.119L95.2887 100.947L94.6759 100.718L94.4059 100.541L94.1203 100.474L93.5594 100.214L93.2322 100.115L92.9882 99.8756V99.5323L95.029 94.5177L95.1433 94.1484L95.4133 93.571L95.7093 92.7075L95.8392 92.4318L95.8236 92.0469L95.6003 91.7504L95.0239 91.5163L94.7019 91.4539L94.1358 91.1574L93.8346 91.0845L93.4763 91.0793L93.2115 91.3498L92.3754 93.4254L92.23 93.6958L92.1417 94.0028L91.8768 94.5333L91.7574 94.8662L91.6743 95.1575L89.4465 100.718Z" fill="black"/>
<path d="M101.911 106.616L103.282 107.017L103.916 107.069L105.468 107.007L106.907 106.434L107.208 106.247L108.195 105.457L108.413 105.217L108.579 104.942L108.761 104.739L108.953 104.437L109.446 103.428L109.784 102.377L109.888 101.784L109.893 101.42L109.96 101.051L109.888 100.458L109.893 100.145L109.805 99.8178L109.695 99.5681L109.612 99.2248L109.212 98.3873L108.646 97.607L106.953 96.2129L106.268 95.9164L105.209 95.5575L104.887 95.4951L104.554 95.4691L104.243 95.4795L103.62 95.3962L102.674 95.5679L102.394 95.6615L101.792 95.7916L101.21 96.0777L100.41 96.6135L100.177 96.8111L99.5637 97.5134L99.1898 98.1012L98.4368 99.797L98.2239 100.796L98.2395 101.389L98.2031 101.737L98.2447 102.06L98.5563 103.293L98.8107 103.86L98.9094 104.161L99.6987 105.103L99.9324 105.332L101.044 106.211L101.911 106.616ZM102.55 103.844L102.295 103.62L102.041 103.48L101.646 103.012L101.35 102.424L101.288 102.159L101.179 101.872L101.231 100.931L101.454 100.156L101.651 99.7189L101.973 99.2144L102.171 98.9803L102.436 98.845L102.669 98.6474L102.955 98.4913L103.256 98.3873L103.806 98.2624L104.123 98.2416L104.466 98.2936L105.167 98.5069L105.863 98.8398L106.507 99.5005L106.829 100.026L106.964 100.666L106.974 100.983L106.943 101.311L106.938 101.623L106.741 102.283L106.356 102.986L105.977 103.542L105.723 103.698L105.499 103.865L105.214 104.062L104.611 104.229L104.3 104.239L104.009 104.276L103.729 104.198L103.417 104.161L102.55 103.844Z" fill="black"/>
<path d="M111.673 109.972L111.803 110.331L112.052 110.658L112.618 110.872L112.992 110.882L113.356 110.669L113.589 110.471L113.808 110.18L114.062 109.972L114.239 109.753L114.498 109.493L114.67 109.285L115.568 108.375L115.786 108.099L116.279 107.647L116.705 107.147L116.835 107.251L116.877 107.563L116.84 107.912L116.892 108.515L116.809 111.137L116.835 111.72L116.809 112.037L116.965 112.458L117.235 112.775L117.521 112.874L117.791 112.932L118.196 112.958L118.523 112.781L118.725 112.536L118.964 112.323L120.896 110.102L121.13 109.904L122.127 108.843L122.412 108.479L122.651 108.266L122.812 108.037L124.775 105.904L124.983 105.607L125.238 105.399L125.887 104.609L125.939 104.219L125.674 104.026L125.393 103.86L124.869 103.683L124.287 103.412L123.965 103.313L123.7 103.157L123.332 103.178L122.953 103.386L122.766 103.641L122.532 103.839L120.662 106.117L120.486 106.388L120.044 106.934L119.686 107.511L119.484 107.756L119.343 107.683L119.39 106.721L119.437 106.393L119.473 104.458L119.556 103.839L119.551 103.506L119.613 102.845L119.593 102.544L119.582 102.231L119.499 101.847L119.26 101.545L118.933 101.415L118.575 101.441L118.206 101.638L117.126 102.902L116.69 103.35L115.464 104.853L115.225 105.014L115.038 105.3L114.592 105.774L114.467 105.743L114.55 105.363L114.908 101.748L114.893 101.446L114.95 100.801L115.007 100.478V100.135L114.841 99.7866L114.612 99.5421L113.434 99.0479L113.195 98.8815L112.909 98.8191L112.592 98.7046L112.244 98.6682L112.047 98.9855L111.959 99.4173L111.902 101.358L111.933 101.664L111.865 103.568L111.824 103.927L111.787 105.207L111.829 105.498L111.668 109.347L111.689 109.68L111.673 109.972Z" fill="black"/>
<path d="M131.136 118.374L131.853 118.733L132.918 119.077L133.863 119.254L134.185 119.212L134.538 119.233L134.839 119.217L135.774 118.993L136.355 118.749L136.875 118.442L137.399 118.031L138.24 117.064L138.256 116.762L138.038 116.45L137.186 116.169L136.911 116.008L136.61 115.904L136.319 115.768L135.904 115.805L135.571 115.95L135.312 116.169L134.818 116.419L134.496 116.528H134.237L133.608 116.601L132.803 116.325L132.393 116.106L131.941 115.701L131.531 115.222L131.256 114.666L131.141 114.015L131.157 113.677L131.136 113.428L131.173 113.131L131.256 112.788L131.624 111.883L131.967 111.331L132.403 110.889L132.663 110.665L133.188 110.395L133.655 110.26L134.143 110.197L135.187 110.468L135.815 110.754L136.22 111.071L136.444 111.284L136.584 111.529L136.838 112.132L136.911 112.424L137.077 112.819L137.352 113.121L137.633 113.199L137.934 113.339L138.24 113.443L138.635 113.656L139.097 113.792L139.393 113.771L139.617 113.521L139.663 113.157V112.85L139.7 112.502L139.637 112.2L139.596 111.909L139.492 111.57L139.445 111.227L139.201 110.629L138.453 109.583L137.228 108.533L136.953 108.403L136.672 108.241L135.763 107.856L134.216 107.555L132.912 107.628L132.351 107.784L131.479 108.101L130.877 108.444L130.425 108.756L129.719 109.438L129.324 109.984L128.664 111.201L128.316 112.32L128.181 113.245L128.296 114.79L128.638 115.69L129.069 116.538L129.568 117.136L130.124 117.688L130.362 117.854L130.617 118.078L130.861 118.244L131.136 118.374Z" fill="black"/>
<path d="M143.177 123.337L144.548 123.738L145.181 123.79L146.734 123.727L148.172 123.155L148.474 122.968L149.46 122.177L149.678 121.938L149.845 121.662L150.026 121.459L150.218 121.158L150.712 120.149L151.049 119.098L151.153 118.505L151.158 118.141L151.226 117.771L151.153 117.178L151.158 116.866L151.07 116.539L150.961 116.289L150.878 115.946L150.478 115.108L149.912 114.328L148.219 112.934L147.534 112.637L146.474 112.278L146.152 112.216L145.82 112.19L145.508 112.2L144.885 112.117L143.94 112.289L143.66 112.382L143.057 112.512L142.476 112.798L141.676 113.334L141.442 113.532L140.829 114.234L140.455 114.822L139.702 116.518L139.49 117.517L139.505 118.11L139.469 118.458L139.51 118.781L139.822 120.013L140.076 120.58L140.175 120.882L140.964 121.824L141.198 122.052L142.309 122.932L143.177 123.337ZM143.815 120.565L143.561 120.341L143.306 120.201L142.912 119.732L142.616 119.145L142.553 118.879L142.444 118.593L142.496 117.652L142.72 116.877L142.917 116.44L143.239 115.935L143.436 115.701L143.701 115.566L143.935 115.368L144.22 115.212L144.522 115.108L145.072 114.983L145.389 114.962L145.732 115.014L146.433 115.228L147.129 115.561L147.773 116.221L148.094 116.747L148.23 117.386L148.24 117.704L148.209 118.031L148.204 118.344L148.006 119.004L147.622 119.706L147.243 120.263L146.988 120.419L146.765 120.586L146.479 120.783L145.877 120.95L145.565 120.96L145.275 120.997L144.994 120.918L144.683 120.882L143.815 120.565Z" fill="black"/>
<path d="M153.722 127.436L154.163 127.618L154.646 127.743L154.942 127.863L155.425 127.905L156.074 128.045L156.889 128.035L158.146 127.769L159.247 127.13L159.517 126.89L159.787 126.729L160.26 126.245L160.447 125.996L160.634 125.704L160.821 125.491L160.987 125.21L161.111 124.903L161.35 124.445L161.506 124.008L161.771 122.755L161.807 122.115L161.802 121.787L161.615 120.794L161.184 119.603L160.634 118.796L160.421 118.521L160.151 118.338L159.943 118.12L159.663 117.917L158.847 117.433L155.487 116.034L155.202 115.972L154.911 115.836L154.532 115.842L154.272 116.097L150.912 124.373L150.829 124.664L150.528 125.418L150.486 125.938L150.725 126.209L151.032 126.297L152.823 127.057L153.14 127.135L153.722 127.436ZM154.656 124.992L154.386 124.846L154.111 124.544V124.217L154.194 123.962L154.454 123.358L154.688 122.609L155.046 121.891L155.846 119.837L155.975 119.597L156.261 119.316L156.775 119.405L157.404 119.639L157.814 119.857L158.323 120.253L158.536 120.497L158.691 120.747L158.832 121.049L158.946 121.402L158.993 121.714L159.019 122.037L158.728 123.436L158.162 124.409L157.689 124.856L156.889 125.257L156.256 125.382L155.773 125.34L155.108 125.158L154.656 124.992Z" fill="black"/>
<path d="M165.061 132.033L167.185 132.865L167.549 132.855L167.839 132.61L168.442 131.112L168.4 130.753L168.141 130.493L167.793 130.384L167.528 130.228L166.78 129.905L166.266 129.765L165.985 129.619L165.653 129.499L165.388 129.343L165.051 129.239L164.801 128.964L164.791 128.652L165.17 127.72L165.425 127.46L165.757 127.408L166.209 127.57L166.666 127.809L167.237 128.007L167.839 128.267L168.146 128.355L168.478 128.511H168.821L169.044 128.256L169.631 126.94L169.647 126.467L169.387 126.134L168.514 125.78L168.192 125.687L167.59 125.39L166.718 125.073L166.463 124.813L166.531 124.303L166.712 123.845L166.962 123.616L167.336 123.632L167.611 123.762L167.912 123.814L170.015 124.703L170.306 124.802L170.685 124.75L170.94 124.542L171.049 124.24L171.184 123.949L171.511 123.049L171.49 122.711L171.246 122.477L170.934 122.347L170.69 122.18L169.486 121.712L169.148 121.608L168.868 121.457L168.608 121.374L168.322 121.223L167.102 120.76L166.821 120.599L166.515 120.542L166.261 120.407L165.954 120.313L165.663 120.178L165.305 120.173L165.019 120.417L164.822 120.994L164.531 121.582L164.443 121.926L163.83 123.367L163.747 123.694L163.602 123.965L163.098 125.172L163.036 125.458L162.049 127.85L161.909 128.121L161.831 128.433L161.374 129.437L161.275 129.775L161.229 130.222L161.597 130.597L162.657 131.044L162.989 131.143L163.254 131.268L163.877 131.471L164.131 131.643L164.469 131.793L164.775 131.887L165.061 132.033Z" fill="black"/>
<path d="M70.833 117.546L71.2744 117.728L71.7573 117.853L72.0533 117.972L72.5363 118.014L73.1854 118.154L74.0007 118.144L75.2575 117.879L76.3584 117.239L76.6285 117L76.8985 116.838L77.3711 116.355L77.558 116.105L77.745 115.814L77.9319 115.6L78.0981 115.319L78.2227 115.013L78.4616 114.555L78.6174 114.118L78.8823 112.864L78.9186 112.224L78.9134 111.897L78.7265 110.903L78.2954 109.712L77.745 108.906L77.5321 108.63L77.262 108.448L77.0543 108.229L76.7739 108.027L75.9585 107.543L72.5986 106.143L72.313 106.081L72.0222 105.946L71.6431 105.951L71.3834 106.206L68.0235 114.482L67.9404 114.773L67.6392 115.527L67.5977 116.048L67.8365 116.318L68.1429 116.407L69.9346 117.166L70.2513 117.244L70.833 117.546ZM71.7677 115.101L71.4977 114.955L71.2224 114.654V114.326L71.3055 114.071L71.5652 113.468L71.7989 112.719L72.1572 112.001L72.9569 109.946L73.0868 109.707L73.3724 109.426L73.8865 109.514L74.5149 109.748L74.9251 109.967L75.434 110.362L75.647 110.607L75.8028 110.856L75.943 111.158L76.0572 111.512L76.104 111.824L76.1299 112.146L75.8391 113.546L75.2731 114.518L74.8005 114.966L74.0007 115.366L73.3672 115.491L72.8842 115.449L72.2195 115.267L71.7677 115.101Z" fill="black"/>
<path d="M82.1742 122.142L84.2982 122.974L84.6617 122.964L84.9525 122.719L85.5549 121.221L85.5133 120.862L85.2537 120.602L84.9058 120.493L84.6409 120.337L83.8931 120.015L83.379 119.874L83.0986 119.728L82.7662 119.609L82.5013 119.453L82.1638 119.349L81.9145 119.073L81.9041 118.761L82.2832 117.83L82.5377 117.57L82.8701 117.518L83.3219 117.679L83.7789 117.918L84.3501 118.116L84.9525 118.376L85.2589 118.464L85.5912 118.62H85.934L86.1573 118.366L86.7441 117.05L86.7597 116.576L86.5 116.243L85.6276 115.89L85.3056 115.796L84.7032 115.499L83.8308 115.182L83.5763 114.922L83.6438 114.412L83.8256 113.954L84.0749 113.726L84.4488 113.741L84.724 113.871L85.0252 113.923L87.1284 114.813L87.4192 114.912L87.7983 114.86L88.0528 114.651L88.1618 114.35L88.2968 114.058L88.624 113.159L88.6032 112.82L88.3592 112.586L88.0476 112.456L87.8035 112.29L86.5987 111.822L86.2612 111.718L85.9807 111.567L85.7211 111.484L85.4354 111.333L84.2151 110.87L83.9346 110.709L83.6283 110.651L83.3738 110.516L83.0674 110.422L82.7766 110.287L82.4183 110.282L82.1326 110.526L81.9353 111.104L81.6445 111.692L81.5562 112.035L80.9434 113.476L80.8603 113.804L80.7149 114.074L80.2112 115.281L80.1489 115.567L79.1622 117.96L79.022 118.23L78.9441 118.542L78.4871 119.546L78.3884 119.884L78.3417 120.332L78.7104 120.706L79.7698 121.154L80.1021 121.253L80.367 121.377L80.9902 121.58L81.2446 121.752L81.5822 121.903L81.8886 121.996L82.1742 122.142Z" fill="black"/>
<path d="M90.5483 125.644L90.9534 125.67L91.4519 125.373L91.8103 125.035L92.0232 124.76L92.4958 124.401L92.7087 124.141L92.9787 123.886L93.1709 123.672L93.4409 123.469L94.5626 122.356L94.7963 122.07L95.2533 121.706L97.7719 119.178L98.0316 118.97L98.4938 118.538L98.6859 118.289L99.1741 117.883L99.4389 117.524L99.4909 117.186L99.2468 117.014L98.9508 116.858L98.7015 116.707L98.4107 116.624L98.1095 116.52L97.5694 116.234L97.1643 116.291L96.8112 116.442L94.1212 119.147L93.9083 119.417L93.6746 119.615L93.5032 119.859L93.2488 120.068L92.6204 120.775L92.3607 120.983L92.2101 120.889L92.1634 119.937L92.2205 119.631L92.1738 119.027L92.2101 116.801L92.1426 115.859L92.1842 114.569L92.0336 114.216L91.7531 113.929L90.9222 113.555L90.6107 113.482L90.0498 113.253L89.7694 113.258L89.5305 113.508L89.4941 114.959L89.5513 115.24L89.5149 115.552V115.896L89.5876 116.187L89.5617 116.541L89.6863 120.073L89.6551 120.4L89.7123 121.321L89.6915 121.675L89.7382 122.283L89.7953 122.616L89.7486 122.939L89.7694 124.588L89.8161 124.864L90.0083 125.233L90.2887 125.488L90.5483 125.644Z" fill="black"/>
<path d="M100.61 129.616L102.734 130.448L103.097 130.437L103.388 130.193L103.991 128.695L103.949 128.336L103.689 128.076L103.341 127.967L103.077 127.811L102.329 127.488L101.815 127.348L101.534 127.202L101.202 127.082L100.937 126.926L100.599 126.822L100.35 126.547L100.34 126.234L100.719 125.303L100.973 125.043L101.306 124.991L101.758 125.152L102.215 125.392L102.786 125.589L103.388 125.849L103.695 125.938L104.027 126.094H104.37L104.593 125.839L105.18 124.523L105.195 124.05L104.936 123.717L104.063 123.363L103.741 123.269L103.139 122.973L102.266 122.656L102.012 122.395L102.079 121.886L102.261 121.428L102.511 121.199L102.884 121.215L103.16 121.345L103.461 121.397L105.564 122.286L105.855 122.385L106.234 122.333L106.488 122.125L106.597 121.823L106.733 121.532L107.06 120.632L107.039 120.294L106.795 120.06L106.483 119.93L106.239 119.763L105.034 119.295L104.697 119.191L104.416 119.04L104.157 118.957L103.871 118.806L102.651 118.343L102.37 118.182L102.064 118.125L101.809 117.99L101.503 117.896L101.212 117.761L100.854 117.755L100.568 118L100.371 118.577L100.08 119.165L99.9919 119.508L99.3791 120.949L99.296 121.277L99.1506 121.548L98.6469 122.754L98.5845 123.041L97.5979 125.433L97.4576 125.704L97.3797 126.016L96.9228 127.02L96.8241 127.358L96.7773 127.805L97.1461 128.18L98.2054 128.627L98.5378 128.726L98.8027 128.851L99.4258 129.054L99.6803 129.225L100.018 129.376L100.324 129.47L100.61 129.616Z" fill="black"/>
<path d="M105.296 130.844L105.244 131.271L105.462 131.536L105.748 131.681L106.387 131.89L106.953 132.155L107.524 132.353L107.789 132.509L108.126 132.613L111.05 133.814L111.388 133.778L111.736 133.388L112.208 132.181L112.255 131.681L112.058 131.395L111.736 131.302L111.434 131.245L111.138 131.073L110.526 130.844L110.256 130.667L109.97 130.6L109.409 130.339L109.082 130.241L108.838 130.001V129.658L110.879 124.643L110.993 124.274L111.263 123.697L111.559 122.833L111.689 122.558L111.673 122.173L111.45 121.876L110.874 121.642L110.552 121.58L109.986 121.283L109.684 121.21L109.326 121.205L109.061 121.476L108.225 123.551L108.08 123.822L107.991 124.128L107.727 124.659L107.607 124.992L107.524 125.283L105.296 130.844Z" fill="black"/>
<path d="M117.766 136.742L119.137 137.143L119.771 137.195L121.324 137.132L122.762 136.56L123.063 136.373L124.05 135.582L124.268 135.343L124.434 135.067L124.616 134.864L124.808 134.563L125.302 133.553L125.639 132.503L125.743 131.91L125.748 131.546L125.816 131.176L125.743 130.583L125.748 130.271L125.66 129.943L125.551 129.694L125.468 129.35L125.068 128.513L124.502 127.733L122.809 126.339L122.123 126.042L121.064 125.683L120.742 125.621L120.41 125.595L120.098 125.605L119.475 125.522L118.53 125.694L118.249 125.787L117.647 125.917L117.065 126.203L116.266 126.739L116.032 126.937L115.419 127.639L115.045 128.227L114.292 129.923L114.079 130.921L114.095 131.514L114.059 131.863L114.1 132.185L114.412 133.418L114.666 133.985L114.765 134.287L115.554 135.228L115.788 135.457L116.899 136.336L117.766 136.742ZM118.405 133.97L118.151 133.746L117.896 133.605L117.502 133.137L117.206 132.549L117.143 132.284L117.034 131.998L117.086 131.057L117.309 130.281L117.507 129.845L117.829 129.34L118.026 129.106L118.291 128.971L118.525 128.773L118.81 128.617L119.111 128.513L119.662 128.388L119.979 128.367L120.321 128.419L121.023 128.633L121.718 128.965L122.362 129.626L122.684 130.151L122.819 130.791L122.83 131.109L122.799 131.436L122.793 131.748L122.596 132.409L122.212 133.111L121.833 133.668L121.578 133.824L121.355 133.99L121.069 134.188L120.467 134.354L120.155 134.365L119.864 134.401L119.584 134.323L119.272 134.287L118.405 133.97Z" fill="black"/>
<path d="M125.736 139.801L126.473 140.066L126.733 140.186L127.086 140.295L127.444 140.3L127.704 140.045L127.808 139.744L127.953 139.421L128.145 138.865L128.291 138.594L128.41 138.246L128.654 138.032L129.059 138.011L129.397 138.11L129.683 138.298L131.256 138.797L132.887 138.802L133.178 138.714L133.484 138.563L133.754 138.448L134.034 138.303L134.538 137.954L135.021 137.476L135.198 137.169L135.379 136.971L135.904 135.764L135.945 135.489L136.034 135.145L136.075 134.526L135.997 133.907L135.842 133.278L135.411 132.43L135.052 131.905L134.533 131.488L134.325 131.28L134.029 131.161L133.775 130.937L133.333 130.745L132.856 130.568L132.513 130.479L131.614 130.1L131.339 129.933L130.399 129.621L130.077 129.475L129.828 129.324L129.496 129.257L129.122 129.293L128.893 129.475L128.182 131.275L127.881 131.842L127.797 132.139L126.234 135.967L126.151 136.264L125.03 138.995L125.076 139.343L125.476 139.676L125.736 139.801ZM129.999 135.634L129.776 135.338L129.745 135.031L130.186 133.814L130.342 133.512L130.586 132.903L130.846 132.685L131.22 132.664L132.736 133.33L132.98 133.585L133.152 133.84L133.266 134.11L133.292 134.469L133.229 134.755L133.094 135.182L132.902 135.567L132.689 135.79L132.461 135.978L132.175 136.134L131.864 136.217L131.599 136.196L131.116 136.066L130.368 135.749L129.999 135.634Z" fill="black"/>
<path d="M135.024 143.562L135.336 143.64L135.902 143.9L136.244 143.989L136.707 144.212L137.19 144.202L137.475 144.01L138.062 142.433L138.291 141.991L138.4 141.674L138.644 141.154L138.748 140.816L138.981 140.238L139.168 140.16L139.293 140.28L139.454 140.566L139.537 140.863L139.9 141.716L139.999 142.028L140.238 142.574L140.461 142.922L140.778 143.068L141.168 142.969L141.464 142.829L141.713 142.725L142.326 142.402L142.59 142.34L143.447 141.96L143.676 141.95L143.707 142.22L143.349 143.026L143.151 143.635L142.886 144.202L142.694 144.759L142.559 145.014L142.32 145.695L142.232 145.913L142.211 146.304L142.487 146.517L144.252 147.302L144.626 147.266L144.979 146.907L145.244 146.122L145.395 145.835L147.16 141.383L147.321 141.065L147.898 139.593L148.028 139.318L148.256 138.667L148.37 138.423L148.599 137.809L148.744 137.539L148.692 137.159L148.448 136.868L147.965 136.831L147.576 136.894L146.693 137.294L146.402 137.455L146.163 137.544L145.847 137.726L144.008 138.532L143.712 138.709L142.44 139.26L142.102 139.333L141.837 139.089L141.765 138.761L141.64 138.47L141.51 138.022L141.308 137.596L140.565 135.551L140.43 135.291L140.228 134.678L140.077 134.371L139.854 133.819L139.615 133.429L139.251 133.143L138.862 133.159L138.576 133.403L138.254 134.324L137.979 134.886L137.901 135.161L136.93 137.528L136.837 137.835L136.187 139.312L136.104 139.609L134.77 142.876L134.806 143.25L135.024 143.562Z" fill="black"/>
<path d="M150.999 150.034L153.123 150.867L153.486 150.856L153.777 150.612L154.379 149.114L154.338 148.755L154.078 148.495L153.73 148.385L153.465 148.229L152.717 147.907L152.203 147.766L151.923 147.621L151.591 147.501L151.326 147.345L150.988 147.241L150.739 146.965L150.728 146.653L151.108 145.722L151.362 145.462L151.694 145.41L152.146 145.571L152.603 145.81L153.174 146.008L153.777 146.268L154.083 146.357L154.416 146.513H154.758L154.982 146.258L155.568 144.942L155.584 144.468L155.324 144.135L154.452 143.782L154.13 143.688L153.528 143.392L152.655 143.074L152.401 142.814L152.468 142.304L152.65 141.847L152.899 141.618L153.273 141.633L153.548 141.763L153.85 141.815L155.953 142.705L156.244 142.804L156.623 142.752L156.877 142.544L156.986 142.242L157.121 141.951L157.448 141.051L157.428 140.713L157.184 140.479L156.872 140.349L156.628 140.182L155.423 139.714L155.085 139.61L154.805 139.459L154.545 139.376L154.26 139.225L153.039 138.762L152.759 138.601L152.453 138.544L152.198 138.408L151.892 138.315L151.601 138.179L151.243 138.174L150.957 138.419L150.76 138.996L150.469 139.584L150.381 139.927L149.768 141.368L149.685 141.696L149.539 141.966L149.036 143.173L148.973 143.459L147.987 145.852L147.846 146.123L147.768 146.435L147.311 147.439L147.213 147.777L147.166 148.224L147.535 148.599L148.594 149.046L148.926 149.145L149.191 149.27L149.814 149.472L150.069 149.644L150.407 149.795L150.713 149.889L150.999 150.034Z" fill="black"/>
<path d="M163.167 154.623L163.468 155.024L163.868 155.237L164.231 155.263L164.501 155.029L166.713 149.635L166.771 149.364L167.363 147.897L167.55 147.559L168.339 145.483L168.308 145.125L168.079 144.844L166.241 144.115L165.893 144.162L165.607 144.407L165.467 144.714L165.415 144.969L165.119 145.572L165.015 145.91L163.914 148.553L163.722 148.766L163.546 148.573L162.917 147.096L162.637 146.602L160.913 142.472L160.762 142.206L160.497 141.889L160.092 141.608L159.692 141.619L159.448 141.842L157.636 146.331L157.516 146.581L157.304 147.2L157.158 147.434L156.203 149.874L156.062 150.144L155.59 151.398L155.605 151.736L155.875 151.965L156.473 152.241L156.81 152.339L157.366 152.62L157.683 152.73L158.041 152.704L158.373 152.303L159.9 148.563L160.051 148.277L160.253 148.069L160.419 148.22L160.508 148.547L161.152 149.983L161.256 150.28L161.437 150.545L162.808 153.76L163.021 154.342L163.167 154.623Z" fill="black"/>
<path d="M169.34 157.451L170.342 157.826L170.83 157.852L171.147 157.498L171.5 156.744L171.687 156.161L171.838 155.865L172.066 155.267L172.201 155.012L172.29 154.668L173.281 152.296L173.365 151.963L173.931 150.694L174.227 150.299L174.58 150.231L175.167 150.439L175.686 150.736L176.013 150.814L176.273 150.939L176.589 150.876L176.901 150.621L177.483 149.222L177.441 148.858L177.239 148.551L176.319 148.182L176.049 148.036L175.722 147.958L175.452 147.812L174.232 147.386L173.962 147.209L173.686 147.079L173.354 146.996L173.043 146.834L172.752 146.788L171.9 146.387L171.422 146.247L170.41 145.768L170.072 145.804L169.755 146.07L169.651 146.377L169.319 147.105L169.163 147.573L169.189 147.896L169.397 148.15L169.703 148.239L171.095 148.842L171.318 149.102L171.36 149.467L171.142 149.924L171.002 150.351L170.856 150.673L170.752 150.975L170.555 151.376L169.709 153.602L169.558 153.888L169.059 155.079L168.961 155.402L168.602 156.26L168.457 156.525L168.519 156.931L168.888 157.254L169.34 157.451Z" fill="black"/>
</svg>
