<svg width="235" height="265" viewBox="0 0 235 265" fill="none" xmlns="http://www.w3.org/2000/svg">
<mask id="mask0_1116_36751" style="mask-type:luminance" maskUnits="userSpaceOnUse" x="15" y="0" width="220" height="265">
<path d="M15.5859 0H234.064V265H15.5859V0Z" fill="white"/>
</mask>
<g mask="url(#mask0_1116_36751)">
<mask id="mask1_1116_36751" style="mask-type:luminance" maskUnits="userSpaceOnUse" x="-23" y="-21" width="279" height="305">
<path d="M-22.3867 66.0631L174.308 -20.173L255.636 197.296L58.9411 283.532L-22.3867 66.0631Z" fill="white"/>
</mask>
<g mask="url(#mask1_1116_36751)">
<mask id="mask2_1116_36751" style="mask-type:luminance" maskUnits="userSpaceOnUse" x="-23" y="-21" width="279" height="305">
<path d="M-22.3887 66.0631L174.306 -20.173L255.634 197.296L58.9392 283.532L-22.3887 66.0631Z" fill="white"/>
</mask>
<g mask="url(#mask2_1116_36751)">
<path d="M84.2681 261.324C84.7391 262.273 85.2707 263.283 86.1941 263.738C87.3507 264.313 88.7311 263.844 89.9529 263.374L216.522 214.303C221.391 212.419 226.507 210.344 229.776 206.072C236.146 197.75 232.639 185.732 228.866 176.057L163.343 8.12464C162.611 6.26641 161.846 4.34253 160.424 3.0145C155.872 -1.23721 148.765 3.10539 143.868 7.17028C125.601 22.3391 105.408 34.6549 84.5712 45.2741C74.2274 50.5509 63.7064 55.4136 53.1061 60.0592C43.807 64.1342 32.0595 66.9165 23.8283 73.2132C7.27266 85.8876 23.4412 104.101 29.737 117.765C40.0015 140.049 47.7104 163.539 55.5219 186.909C63.9676 212.202 72.4786 237.586 84.2681 261.324Z" fill="#FFD8BE"/>
</g>
</g>
</g>
<mask id="mask3_1116_36751" style="mask-type:luminance" maskUnits="userSpaceOnUse" x="0" y="25" width="215" height="239">
<path d="M0.0644531 25.8535H214.961V263.707H0.0644531V25.8535Z" fill="white"/>
</mask>
<g mask="url(#mask3_1116_36751)">
<mask id="mask4_1116_36751" style="mask-type:luminance" maskUnits="userSpaceOnUse" x="-23" y="-21" width="279" height="305">
<path d="M-22.3867 66.0631L174.308 -20.173L255.636 197.296L58.9411 283.532L-22.3867 66.0631Z" fill="white"/>
</mask>
<g mask="url(#mask4_1116_36751)">
<mask id="mask5_1116_36751" style="mask-type:luminance" maskUnits="userSpaceOnUse" x="-23" y="-21" width="279" height="305">
<path d="M-22.3887 66.0632L174.306 -20.1729L255.634 197.296L58.9392 283.532L-22.3887 66.0632Z" fill="white"/>
</mask>
<g mask="url(#mask5_1116_36751)">
<path d="M0.337646 92.6187L151.092 26.5253L214.927 197.215L64.1725 263.313L0.337646 92.6187Z" fill="#FFD1B0"/>
</g>
</g>
</g>
<mask id="mask6_1116_36751" style="mask-type:luminance" maskUnits="userSpaceOnUse" x="62" y="36" width="28" height="63">
<path d="M62.1464 36.1952H89.6054V98.244H62.1464V36.1952Z" fill="white"/>
</mask>
<g mask="url(#mask6_1116_36751)">
<mask id="mask7_1116_36751" style="mask-type:luminance" maskUnits="userSpaceOnUse" x="-23" y="-21" width="279" height="305">
<path d="M-22.3868 66.0631L174.308 -20.173L255.636 197.296L58.941 283.532L-22.3868 66.0631Z" fill="white"/>
</mask>
<g mask="url(#mask7_1116_36751)">
<mask id="mask8_1116_36751" style="mask-type:luminance" maskUnits="userSpaceOnUse" x="-23" y="-21" width="279" height="305">
<path d="M-22.3888 66.0631L174.306 -20.173L255.634 197.296L58.9391 283.532L-22.3888 66.0631Z" fill="white"/>
</mask>
<g mask="url(#mask8_1116_36751)">
<path d="M66.3957 53.7322C65.8688 51.5507 65.4817 49.334 65.2345 47.092C65.062 45.1833 65.0666 43.1332 65.7615 41.3961C66.046 40.6488 66.4704 40.0125 67.03 39.4773C66.9367 39.5631 66.9833 39.4975 67.1326 39.5076C67.2958 39.5076 67.4544 39.5227 67.6129 39.553C68.07 39.6439 68.499 39.8106 68.8954 40.0681C69.0586 40.1741 69.2032 40.3155 69.3618 40.4317C69.5157 40.5528 69.5017 40.5831 69.427 40.4771C69.525 40.6437 69.6136 40.8205 69.6882 41.0023L70.7795 43.1988C71.4557 44.5723 72.1179 45.9458 72.7755 47.3243C77.9893 58.2161 82.6669 69.5221 85.2179 81.5147C86.2112 86.1401 86.8921 91.8309 83.3478 95.4262L84.4204 95.1232C81.585 94.381 79.9341 91.6896 78.7915 88.9679C77.4997 85.8876 76.7162 82.5751 75.3824 79.5454C74.6129 77.7983 72.0293 78.9193 72.7988 80.6816C75.1073 85.928 75.9001 92.851 80.559 96.4664C81.6689 97.3249 83.9914 98.8498 85.2319 97.6935C86.4117 96.5422 87.3025 95.1737 87.8994 93.5781C89.042 90.5787 88.958 87.2258 88.5756 84.0698C88.2259 81.7571 87.7362 79.4747 87.1159 77.2277C86.5843 75.0867 85.9874 72.9507 85.3205 70.8501C84.038 66.6741 82.5363 62.5739 80.8901 58.5444C79.1972 54.4138 77.3551 50.354 75.443 46.3447C74.4917 44.3602 73.5217 42.3858 72.547 40.4115C72.1739 39.4672 71.6376 38.6492 70.9334 37.9574C70.2245 37.3767 69.441 36.9677 68.5783 36.7404C67.7295 36.4476 66.8761 36.4375 66.0226 36.7101C65.2672 37.0636 64.6609 37.614 64.2039 38.3563C63.2385 39.755 62.6649 41.3254 62.4783 43.0675C62.0166 46.7537 62.8281 50.5156 63.6349 54.0806C63.6909 54.4845 63.8681 54.8178 64.1666 55.0703C64.465 55.3278 64.8008 55.4389 65.1785 55.4035C65.3604 55.3783 65.533 55.3177 65.6915 55.2218C65.8548 55.1258 65.99 54.9945 66.1066 54.8431C66.2185 54.6865 66.3025 54.5098 66.3538 54.3179C66.4004 54.126 66.4191 53.9341 66.3957 53.7322Z" fill="#C1997E"/>
</g>
</g>
</g>
<mask id="mask9_1116_36751" style="mask-type:luminance" maskUnits="userSpaceOnUse" x="174" y="98" width="45" height="135">
<path d="M174.369 98.2439H218.542V232.683H174.369V98.2439Z" fill="white"/>
</mask>
<g mask="url(#mask9_1116_36751)">
<mask id="mask10_1116_36751" style="mask-type:luminance" maskUnits="userSpaceOnUse" x="-23" y="-21" width="279" height="305">
<path d="M-22.387 66.0631L174.308 -20.173L255.636 197.296L58.9409 283.532L-22.387 66.0631Z" fill="white"/>
</mask>
<g mask="url(#mask10_1116_36751)">
<mask id="mask11_1116_36751" style="mask-type:luminance" maskUnits="userSpaceOnUse" x="-23" y="-21" width="279" height="305">
<path d="M-22.385 66.0631L174.31 -20.173L255.638 197.296L58.9428 283.532L-22.385 66.0631Z" fill="white"/>
</mask>
<g mask="url(#mask11_1116_36751)">
<path d="M190.674 215.242C203.443 184.596 205.91 148.578 197.455 116.245" stroke="#FF968A" stroke-width="1.23973" stroke-miterlimit="10"/>
</g>
</g>
</g>
<mask id="mask12_1116_36751" style="mask-type:luminance" maskUnits="userSpaceOnUse" x="189" y="94" width="12" height="31">
<path d="M189.89 94.3658H200.635V124.098H189.89V94.3658Z" fill="white"/>
</mask>
<g mask="url(#mask12_1116_36751)">
<mask id="mask13_1116_36751" style="mask-type:luminance" maskUnits="userSpaceOnUse" x="-23" y="-21" width="279" height="305">
<path d="M-22.387 66.0631L174.308 -20.173L255.636 197.296L58.9409 283.532L-22.387 66.0631Z" fill="white"/>
</mask>
<g mask="url(#mask13_1116_36751)">
<mask id="mask14_1116_36751" style="mask-type:luminance" maskUnits="userSpaceOnUse" x="-23" y="-21" width="279" height="305">
<path d="M-22.3889 66.0631L174.306 -20.173L255.634 197.296L58.9389 283.532L-22.3889 66.0631Z" fill="white"/>
</mask>
<g mask="url(#mask14_1116_36751)">
<path d="M199.854 123.623C195.909 119.927 193.153 114.746 191.46 109.222C190.308 105.434 189.651 101.208 190.844 97.4309C191.115 96.3149 191.698 95.4413 192.593 94.8152C193.95 94.0578 195.601 94.9364 196.576 96.2442C198.176 98.4357 198.39 101.506 198.539 104.374L199.505 123.588L199.318 121.795" fill="#FF968A"/>
</g>
</g>
</g>
<mask id="mask15_1116_36751" style="mask-type:luminance" maskUnits="userSpaceOnUse" x="181" y="116" width="33" height="24">
<path d="M181.531 116.341H213.766V139.61H181.531V116.341Z" fill="white"/>
</mask>
<g mask="url(#mask15_1116_36751)">
<mask id="mask16_1116_36751" style="mask-type:luminance" maskUnits="userSpaceOnUse" x="-23" y="-21" width="279" height="305">
<path d="M-22.3867 66.0631L174.308 -20.173L255.636 197.296L58.9411 283.532L-22.3867 66.0631Z" fill="white"/>
</mask>
<g mask="url(#mask16_1116_36751)">
<mask id="mask17_1116_36751" style="mask-type:luminance" maskUnits="userSpaceOnUse" x="-23" y="-21" width="279" height="305">
<path d="M-22.3866 66.0631L174.308 -20.173L255.636 197.296L58.9413 283.532L-22.3866 66.0631Z" fill="white"/>
</mask>
<g mask="url(#mask17_1116_36751)">
<path d="M183.151 124.062C182.456 122.78 181.896 121.037 182.731 119.856C190.636 122.81 196.278 130.531 201.483 137.908C201.739 134.621 202.42 131.44 203.53 128.364C204.64 125.289 206.128 122.451 207.998 119.846C208.6 118.896 209.374 118.159 210.32 117.634C210.791 117.387 211.286 117.316 211.799 117.427C212.316 117.538 212.746 117.811 213.095 118.235C213.776 119.22 213.552 120.603 213.245 121.81C211.724 127.415 206.771 139.751 200.415 138.888C194.059 138.019 186.284 129.844 183.151 124.062Z" fill="#FF968A"/>
</g>
</g>
</g>
<mask id="mask18_1116_36751" style="mask-type:luminance" maskUnits="userSpaceOnUse" x="174" y="126" width="30" height="36">
<path d="M174.369 126.683H203.022V161.585H174.369V126.683Z" fill="white"/>
</mask>
<g mask="url(#mask18_1116_36751)">
<mask id="mask19_1116_36751" style="mask-type:luminance" maskUnits="userSpaceOnUse" x="-23" y="-21" width="279" height="305">
<path d="M-22.387 66.0632L174.308 -20.1729L255.636 197.296L58.9409 283.532L-22.387 66.0632Z" fill="white"/>
</mask>
<g mask="url(#mask19_1116_36751)">
<mask id="mask20_1116_36751" style="mask-type:luminance" maskUnits="userSpaceOnUse" x="-23" y="-21" width="279" height="305">
<path d="M-22.385 66.0632L174.31 -20.1729L255.638 197.296L58.9428 283.532L-22.385 66.0632Z" fill="white"/>
</mask>
<g mask="url(#mask20_1116_36751)">
<path d="M179.458 139.63C177.285 136.57 175.205 133.197 174.673 129.708C174.585 129.273 174.589 128.844 174.697 128.415C175.004 127.466 176.175 127.395 177.182 127.693C179.64 128.435 181.841 130.642 183.711 132.884C186.216 135.853 188.477 139.049 190.73 142.226L196.359 150.168C197.543 151.779 198.649 153.456 199.675 155.188C200.439 156.541 203.475 161.298 200.854 161.091C198.872 160.919 195.025 156.768 193.341 155.263C188.184 150.603 183.553 145.397 179.458 139.63Z" fill="#FF968A"/>
</g>
</g>
</g>
<mask id="mask21_1116_36751" style="mask-type:luminance" maskUnits="userSpaceOnUse" x="201" y="122" width="28" height="40">
<path d="M201.83 122.805H228.095V161.585H201.83V122.805Z" fill="white"/>
</mask>
<g mask="url(#mask21_1116_36751)">
<mask id="mask22_1116_36751" style="mask-type:luminance" maskUnits="userSpaceOnUse" x="-23" y="-21" width="279" height="305">
<path d="M-22.3807 66.063L174.314 -20.1731L255.642 197.296L58.9471 283.532L-22.3807 66.063Z" fill="white"/>
</mask>
<g mask="url(#mask22_1116_36751)">
<mask id="mask23_1116_36751" style="mask-type:luminance" maskUnits="userSpaceOnUse" x="-23" y="-21" width="279" height="305">
<path d="M-22.3788 66.063L174.316 -20.1731L255.644 197.296L58.9491 283.532L-22.3788 66.063Z" fill="white"/>
</mask>
<g mask="url(#mask23_1116_36751)">
<path d="M218.116 130.101C219.758 127.647 221.497 125.208 223.773 123.87C224.542 123.416 225.512 123.108 226.277 123.865C227.037 124.622 227.196 126.132 227.126 127.344C226.86 132.328 224.953 136.645 222.784 140.407C218.662 147.78 213.34 153.93 206.816 158.863C206.028 159.449 203.538 162.014 202.731 160.535C201.924 159.06 203.869 156.061 204.349 154.995C206.266 150.769 208.308 146.674 210.482 142.71C212.888 138.362 215.43 134.156 218.116 130.101Z" fill="#FF968A"/>
</g>
</g>
</g>
<path d="M52.1669 160.268L52.5586 160.066L52.8198 159.98L53.7711 159.273L54.1629 158.808L54.4986 158.314L54.7411 157.758L54.8811 157.122L54.8624 156.799L54.9137 156.501L54.8344 155.839L54.6665 155.112L53.3467 151.174L53.2302 150.911L53.1462 150.578L53.0436 150.356L52.6379 149.144L52.5819 148.836L52.3021 148.598L51.9757 148.613L51.1362 148.977L50.5533 149.154L50.3201 149.411L50.2781 149.79L52.2275 155.526L52.4373 156.465L52.428 156.718L52.3767 157.066L52.2088 157.329L51.7984 157.708L50.9916 158.021L50.6559 158.071L50.3807 158.016L50.1056 157.925L49.8631 157.753L49.6905 157.511L49.3268 156.693L47.7971 151.981L47.6992 151.774L47.5686 151.295L47.4007 150.886L47.1302 150.628L46.8038 150.608L46.5473 150.709L46.2954 150.855L45.6938 151.027L45.428 151.179L45.1808 151.406L45.1016 151.754L45.2228 152.032L45.3441 152.385L45.3954 152.628L46.1182 154.653L46.1742 154.961L46.2908 155.228L47.0369 157.592L47.508 158.728L47.8437 159.273L48.2261 159.682L48.7112 160.086L48.9397 160.227L49.2055 160.338L49.7371 160.475L50.0543 160.5L50.2968 160.556L50.8937 160.601L51.458 160.51L51.7285 160.404L52.1669 160.268Z" fill="black"/>
<path d="M60.7117 156.836L61.1174 156.725L61.5418 156.543L62.773 155.745L63.3326 155.063L63.659 154.574L63.8782 153.958L63.9948 153.387L64.0135 153.084L63.9948 152.761L63.9482 152.483L63.659 151.569L63.5238 151.296L63.3606 151.044L62.9129 150.61L62.4372 150.287L62.1387 150.17L61.3086 150.1L60.1054 150.241L58.683 150.585L58.0441 150.59L57.8016 150.549L57.5078 150.403L57.3632 150.014L57.2793 149.62L57.3586 149.357L57.5218 149.075L57.6803 148.918L57.9042 148.762L58.7576 148.393L59.0934 148.398L59.3546 148.489L59.9702 148.827L60.4365 148.812L61.3366 148.489L61.5651 148.368L61.8309 148.297L62.0314 148.019L62.0594 147.696L61.761 147.166L61.3692 146.727L61.1174 146.565L60.9029 146.383L60.6557 146.232L59.5784 145.929L58.7436 145.944L58.4405 145.994L58.1887 146.06L57.8716 146.106L57.1207 146.414L56.132 147.065L55.9268 147.262L55.759 147.494L55.5724 147.666L55.3626 147.944L55.2366 148.206L55.0548 148.479L54.9895 148.787L54.8775 149.044L54.8682 149.342L54.8123 149.63L54.9055 150.549L55.246 151.519L55.4791 151.892L55.8242 152.332L56.3232 152.685L56.8269 152.912L57.4005 153.034L58.2586 153.013L58.7856 152.938L59.9189 152.594L60.1754 152.544L60.4505 152.453L61.0055 152.478L61.2526 152.579L61.4485 152.933L61.4951 153.342L61.3459 153.634L61.178 153.847L60.7303 154.205L60.3572 154.367L59.9468 154.498L59.6064 154.528L59.3686 154.508L59.0748 154.442L58.8043 154.316L58.5058 154.104L58.1933 154.094L57.1627 154.468L56.9015 154.599L56.6264 154.69L56.4025 154.927L56.4119 155.27L56.5424 155.584L56.687 155.821L57.0974 156.321L57.5824 156.644L58.1187 156.912L58.3985 156.982L59.5318 157.083L59.8396 157.013H60.1334L60.7117 156.836Z" fill="black"/>
<path d="M66.1864 154.077L66.4523 154.284L66.7601 154.345L69.796 153.123L70.0525 153.073L70.8593 152.704L71.7034 152.441L71.9506 152.31L72.1838 152.058L72.2118 151.729L72.1465 151.442L71.8294 150.543L71.7641 150.255L71.4889 150.033L71.0366 150.048L69.2504 150.714L69.0079 150.856L68.7048 150.947L68.4156 151.088L68.0752 151.027L67.8047 150.624L67.5762 149.901L67.5948 149.548L67.7861 149.29L68.3084 149.088L68.5695 148.952L69.297 148.715L69.6515 148.543L69.9453 148.462L70.1831 148.351L70.3976 148.089L70.4396 147.755L70.0805 146.594L69.9593 146.311L69.7447 146.084L69.4603 146.013L68.9146 146.21L68.6581 146.342L68.3737 146.453L68.0565 146.549L66.9932 146.978L66.7134 146.907L66.4616 146.71L66.2844 146.266L66.2797 145.791L66.6528 145.498L69.2318 144.468L69.4649 144.195L69.5256 143.877L69.297 143.287L69.1618 143.029L69.0685 142.701L69.0172 142.408L68.7841 142.171L68.4576 142.15L67.3757 142.554L67.1425 142.681L66.858 142.741L66.2751 143.004L65.9952 143.08L65.4776 143.302L65.2258 143.367L63.4723 144.105L63.1178 144.357L63.0898 144.731L63.3137 145.306L63.3976 145.751L63.7008 146.473L63.7801 146.786L63.892 147.038L64.7641 149.649L64.8294 149.972L65.0579 150.528L65.2258 151.118L65.3703 151.411L65.4496 151.745L65.5569 152.012L65.6035 152.29L65.7434 152.618L65.8413 152.911L66.0559 153.466L66.1398 153.764L66.1864 154.077Z" fill="black"/>
<path d="M73.961 150.981L74.1615 151.264L74.4786 151.304L74.7398 151.218L75.2808 150.961L75.5699 150.88L75.9756 150.718L76.344 150.41V150.097L76.2694 149.779L76.1155 149.491L75.943 148.85L75.6165 147.956L75.6398 147.618L75.859 147.365L76.1015 147.269L76.3394 147.163L76.7171 147.148L77.0156 147.31L77.5333 147.683L77.7245 147.921L78.3447 148.501L78.6105 148.714L78.8157 148.91L79.0536 149.082L79.4127 149.239L79.7764 149.193L80.2708 149.037L80.5599 148.89L80.8397 148.815L81.376 148.602L81.6652 148.456L81.9217 148.274L81.875 147.946L81.5766 147.648L80.905 147.103L80.7045 146.901L80.4526 146.704L80.2288 146.492L79.977 146.33L79.3194 145.729L79.1608 145.396L79.2075 145.032L79.4546 144.487L79.5339 144.179V143.861L79.5945 143.543L79.6039 143.26L79.5666 142.644L79.1981 141.488L79.0349 141.235L78.9043 140.978L78.7365 140.71L78.1069 140.049L77.8457 139.907L77.6498 139.735L76.7917 139.443L76.2321 139.367L75.0336 139.559L74.6838 139.66L74.3014 139.826L73.9983 139.927L73.7371 140.064L73.434 140.149L73.2148 140.271L72.394 140.559L72.1515 140.7L71.5825 140.861L71.34 141.003L71.0416 141.104L70.8271 141.336L70.8224 141.685L72.1468 145.785L72.3287 146.194L72.5712 146.921L72.6505 147.239L72.8184 147.8L72.9676 148.103L73.1262 148.719L73.4666 149.542L73.5412 149.86L73.961 150.981ZM75.0709 145.002L74.7957 144.962L74.5579 144.709L73.975 143.088L74.0356 142.735L74.2594 142.482L74.4693 142.386L75.2155 142.109L75.8637 141.952L76.372 142.068L76.5819 142.235L76.7544 142.427L76.9223 142.841L77.0156 143.25L77.0016 143.583L76.9363 143.891L76.8337 144.129L76.6658 144.31L75.6492 144.825L75.3647 144.886L75.0709 145.002Z" fill="black"/>
<path d="M90.7653 144.971L92.682 144.183L92.9245 143.941L92.9665 143.577L92.4768 142.108L92.2297 141.87L91.9032 141.85L91.6048 142.001L91.3343 142.057L90.6394 142.315L90.215 142.547L89.9352 142.623L89.6461 142.754L89.3756 142.809L89.0864 142.956L88.7553 142.921L88.5594 142.698L88.2517 141.779L88.2703 141.426L88.4615 141.173L88.8579 140.997L89.3056 140.875L89.8093 140.643L90.3642 140.441L90.6254 140.305L90.9379 140.199L91.171 139.977L91.1664 139.648L90.77 138.32L90.4948 137.967L90.1217 137.896L89.3289 138.209L89.0538 138.346L88.4755 138.527L87.7014 138.861L87.3749 138.84L87.1184 138.431L86.9645 137.977L86.9972 137.654L87.2536 137.422L87.5148 137.336L87.748 137.179L89.688 136.452L89.9352 136.336L90.159 136.048L90.2103 135.735L90.0984 135.447L90.0145 135.149L89.6927 134.286L89.4782 134.059L89.1704 134.048L88.8906 134.16L88.6247 134.195L87.5381 134.634L87.2536 134.781L86.9738 134.856L86.75 134.962L86.4702 135.038L85.3742 135.503L85.0944 135.563L84.8566 135.72L84.6047 135.786L84.3436 135.922L84.0684 136.013L83.8259 136.24L83.7793 136.604L83.9938 137.149L84.1524 137.765L84.3016 138.068L84.7493 139.507L84.8939 139.8L84.9592 140.088L85.3463 141.29L85.4722 141.532L86.251 143.9L86.3163 144.188L86.4562 144.466L86.75 145.486L86.8852 145.799L87.1231 146.152L87.5894 146.183L88.5641 145.814L88.8533 145.673L89.1004 145.592L89.6367 145.329L89.9119 145.289L90.229 145.183L90.4855 145.046L90.7653 144.971Z" fill="black"/>
<path d="M93.8188 143.262L94.01 143.55L94.3178 143.56L94.579 143.439L94.8168 143.363L95.0733 143.232L96.0853 142.833L96.3838 142.586L96.589 142.242L96.7196 141.631L96.9108 140.152L97.1719 138.925L97.3351 138.829L97.573 139.036L97.7595 139.273L98.03 139.45L98.1886 139.652L99.7462 141.02L100.096 141.162L100.427 141.147L100.949 140.93L101.187 140.869L102.269 140.409L102.456 140.238L102.404 139.91L102.162 139.591L101.281 138.869L101.029 138.703L100.828 138.516L100.586 138.38L100.39 138.162L100.143 137.976L99.8815 137.829L99.6529 137.607L99.4477 137.44L99.0047 137.036L98.7622 136.9L98.3285 136.511L98.058 136.334L97.8994 136.001L97.8901 135.612L97.9554 135.304L97.9787 135.011L98.058 134.703L98.1839 134.39L98.9581 130.654L98.7669 130.401H98.4637L97.9367 130.558L97.6663 130.699L97.2092 130.846L96.9574 130.962L96.5144 131.265L96.3465 131.628L96.1693 132.472L96.0713 132.775L95.9268 133.709L95.8475 134.017L95.8055 134.299L95.6376 134.38L95.3531 134.178L94.3038 133.224L94.0567 133.072L93.8655 132.865L93.6183 132.684L93.3058 132.522L92.9188 132.542L91.2445 133.184L90.9414 133.416L91.0207 133.8L91.5477 134.234L91.7948 134.421L92.0094 134.613L92.2659 134.744L93.1659 135.516L93.4038 135.683L93.8748 136.092L94.122 136.228L94.3365 136.425L94.5417 136.673L94.7888 136.86L94.9987 137.173L95.05 137.546L94.9847 137.804L94.8821 138.142L94.8588 138.43L94.6396 139.329L94.6303 139.576L94.4484 140.223L94.4111 140.47L94.2898 140.834L94.2619 141.121L93.8841 142.722L93.8188 143.262Z" fill="black"/>
<path d="M103.558 139.392L103.768 139.655L104.09 139.66L104.37 139.584L105.163 139.261L105.466 139.175L105.75 139.064L105.965 138.797L105.983 138.443L105.802 137.852L105.685 137.585L105.634 137.307L105.503 136.999L105.4 136.691L105.41 136.408L105.727 136.12L106.007 135.959L106.426 135.843L107.121 135.555L107.634 135.222L108.334 134.666L108.688 134.181L108.847 133.924L109.108 133.338L109.304 132.47L109.341 132.161L109.346 131.864L109.267 131.217L109.206 130.945L108.931 130.076L108.311 129.036L107.863 128.617L107.606 128.435L107.364 128.299L107.14 128.142L106.837 128.011L106.338 127.879L105.76 127.789L105.456 127.844L105.149 127.834L104.887 127.869L100.853 129.435L100.536 129.707L100.494 130.036L100.569 130.354L100.77 130.95L100.816 131.232L100.909 131.505L101.049 131.798L101.548 133.288L101.618 133.585L101.735 133.838L101.814 134.171L102.052 134.752L102.131 135.166L102.318 135.59L102.383 135.878L102.588 136.489L102.724 136.752L102.877 137.352L103.223 138.256L103.255 138.574L103.4 138.827L103.456 139.12L103.558 139.392ZM104.901 133.752L104.603 133.722L104.346 133.495L103.638 131.475L103.694 131.091L103.922 130.869L104.253 130.707L105.349 130.344L105.62 130.384L105.876 130.465L106.165 130.601L106.384 130.798L106.734 131.434L106.809 132.161L106.636 132.692L106.473 132.939L106.305 133.151L105.223 133.661L104.901 133.752Z" fill="black"/>
<path d="M112.407 135.958L112.673 136.165L112.981 136.225L116.017 135.003L116.273 134.953L117.08 134.584L117.924 134.322L118.171 134.19L118.404 133.938L118.432 133.61L118.367 133.322L118.05 132.423L117.985 132.135L117.71 131.913L117.257 131.928L115.471 132.595L115.228 132.736L114.925 132.827L114.636 132.968L114.296 132.908L114.025 132.504L113.797 131.782L113.815 131.428L114.007 131.171L114.529 130.969L114.79 130.832L115.518 130.595L115.872 130.423L116.166 130.343L116.404 130.232L116.618 129.969L116.66 129.636L116.301 128.474L116.18 128.192L115.965 127.964L115.681 127.894L115.135 128.091L114.879 128.222L114.594 128.333L114.277 128.429L113.214 128.858L112.934 128.787L112.682 128.59L112.505 128.146L112.5 127.671L112.873 127.379L115.452 126.349L115.686 126.076L115.746 125.758L115.518 125.167L115.382 124.909L115.289 124.581L115.238 124.288L115.005 124.051L114.678 124.031L113.596 124.435L113.363 124.561L113.079 124.622L112.496 124.884L112.216 124.96L111.698 125.182L111.446 125.248L109.693 125.985L109.338 126.237L109.31 126.611L109.534 127.187L109.618 127.631L109.921 128.353L110.001 128.666L110.113 128.919L110.985 131.529L111.05 131.853L111.278 132.408L111.446 132.999L111.591 133.292L111.67 133.625L111.777 133.893L111.824 134.17L111.964 134.498L112.062 134.791L112.276 135.347L112.36 135.645L112.407 135.958Z" fill="black"/>
<path d="M120.182 132.861L120.382 133.144L120.699 133.184L120.96 133.098L121.501 132.841L121.79 132.76L122.196 132.599L122.565 132.291V131.977L122.49 131.659L122.336 131.372L122.164 130.73L121.837 129.836L121.86 129.498L122.08 129.246L122.322 129.15L122.56 129.044L122.938 129.029L123.236 129.19L123.754 129.564L123.945 129.801L124.565 130.382L124.831 130.594L125.036 130.791L125.274 130.963L125.633 131.119L125.997 131.074L126.491 130.917L126.78 130.771L127.06 130.695L127.597 130.483L127.886 130.336L128.142 130.155L128.096 129.826L127.797 129.528L127.126 128.983L126.925 128.781L126.673 128.584L126.449 128.372L126.198 128.211L125.54 127.61L125.381 127.276L125.428 126.913L125.675 126.367L125.755 126.059V125.741L125.815 125.423L125.824 125.14L125.787 124.524L125.419 123.368L125.256 123.116L125.125 122.858L124.957 122.59L124.327 121.929L124.066 121.787L123.87 121.616L123.012 121.323L122.453 121.247L121.254 121.439L120.904 121.54L120.522 121.707L120.219 121.808L119.958 121.944L119.655 122.03L119.435 122.151L118.615 122.439L118.372 122.58L117.803 122.742L117.561 122.883L117.262 122.984L117.048 123.217L117.043 123.565L118.367 127.665L118.549 128.074L118.792 128.801L118.871 129.119L119.039 129.68L119.188 129.983L119.347 130.599L119.687 131.422L119.762 131.74L120.182 132.861ZM121.291 126.882L121.016 126.842L120.778 126.59L120.196 124.969L120.256 124.615L120.48 124.363L120.69 124.267L121.436 123.989L122.084 123.833L122.593 123.949L122.802 124.115L122.975 124.307L123.143 124.721L123.236 125.13L123.222 125.464L123.157 125.772L123.054 126.009L122.886 126.191L121.87 126.706L121.585 126.766L121.291 126.882Z" fill="black"/>
<path d="M129.136 129.398L129.374 129.651H129.677L133.688 128.11L133.898 127.863L133.958 127.54L133.851 127.222L133.735 126.969L133.478 126.065L133.208 125.889L132.2 125.939L131.953 125.702L131.58 124.495L131.333 123.934L131.184 123.303L131.011 122.874L130.885 122.409L130.764 122.147L130.694 121.844L130.563 121.546L130.358 120.935L130.419 120.612L130.624 120.354L130.913 120.223L131.118 119.96L131.174 119.627L130.885 118.764L130.824 118.491L130.699 118.213L130.493 117.961L130.018 118.001L128.301 118.658L128.017 118.799L127.192 119.107L126.94 119.223L126.403 119.4L126.156 119.663L126.11 120.026L126.203 120.304L126.259 120.561L126.366 120.885L126.492 121.162L126.585 121.44L126.809 121.667L127.737 121.652L127.998 121.844L128.371 123.101L128.469 123.344L128.623 123.662L128.81 124.263L128.88 124.566L129.122 125.116L129.15 125.434L129.416 126.04L129.579 126.621L129.551 126.994L128.763 127.646L128.698 127.989L128.763 128.277L129.136 129.398Z" fill="black"/>
<path d="M135.581 126.874L135.847 127.081L136.155 127.142L139.191 125.92L139.447 125.869L140.254 125.501L141.098 125.238L141.345 125.107L141.578 124.854L141.606 124.526L141.541 124.238L141.224 123.34L141.159 123.052L140.883 122.83L140.431 122.845L138.645 123.511L138.402 123.653L138.099 123.744L137.81 123.885L137.47 123.824L137.199 123.42L136.971 122.698L136.989 122.345L137.181 122.087L137.703 121.885L137.964 121.749L138.692 121.512L139.046 121.34L139.34 121.259L139.578 121.148L139.792 120.886L139.834 120.552L139.475 119.391L139.354 119.108L139.139 118.881L138.855 118.81L138.309 119.007L138.053 119.138L137.768 119.249L137.451 119.345L136.388 119.775L136.108 119.704L135.856 119.507L135.679 119.063L135.674 118.588L136.047 118.295L138.626 117.265L138.859 116.992L138.92 116.674L138.692 116.083L138.556 115.826L138.463 115.498L138.412 115.205L138.179 114.967L137.852 114.947L136.77 115.351L136.537 115.477L136.253 115.538L135.67 115.801L135.39 115.876L134.872 116.099L134.62 116.164L132.867 116.901L132.512 117.154L132.484 117.528L132.708 118.103L132.792 118.548L133.095 119.27L133.175 119.583L133.287 119.835L134.159 122.446L134.224 122.769L134.452 123.324L134.62 123.915L134.765 124.208L134.844 124.541L134.951 124.809L134.998 125.087L135.138 125.415L135.236 125.708L135.45 126.263L135.534 126.561L135.581 126.874Z" fill="black"/>
<path d="M150.33 121.303L150.787 121.339L151.174 121.318L151.43 121.036L151.449 120.682L150.19 116.688L149.999 116.299L149.919 115.971L149.281 114.239L149.127 113.643L149.005 113.375L148.81 112.79L148.768 112.477L148.595 112.052L148.367 111.28L148.119 111.083L147.774 111.053L147.494 111.128L147.238 111.229L146.953 111.376L146.655 111.441L146.422 111.568L146.147 111.659L145.872 111.931L145.839 112.29L146.716 114.951L146.87 115.234L146.963 115.511L147.014 115.84L147.219 116.415L147.233 116.678L147.023 116.693L146.212 116.269L145.951 116.173L145.303 115.835L145.027 115.744L144.813 115.597L144.421 115.385L143.88 115.173L143.656 115.011L143.339 114.921L143.129 114.754L142.84 114.668L142.584 114.491L141.59 113.971L140.919 113.789L140.513 113.815L140.252 114.118L140.168 114.466L140.877 116.496L140.947 116.799L141.189 117.38L141.25 117.652L141.367 117.955L141.427 118.279L142.178 120.339L142.239 120.611L142.332 120.889L142.411 121.222L142.504 121.5L142.649 121.788L142.836 122.394L142.961 122.677L143.106 123.242L143.241 123.52L143.335 123.798L143.563 124.07L143.871 124.131L144.323 123.924L145.009 123.702L145.279 123.545L145.596 123.454L145.82 123.202L145.844 122.863L145.704 122.591L144.547 119.001L144.393 118.713L144.468 118.486L144.659 118.46L147.266 119.748L147.546 119.854L149.327 120.758L149.579 120.919L149.859 121.025L150.092 121.182L150.33 121.303Z" fill="black"/>
<path d="M157.626 118.871L158.451 118.599L159.659 117.796L160.284 117.155L160.438 116.927L160.624 116.675L160.797 116.407L160.909 116.15L160.974 115.842L161.137 115.564L161.291 114.65L161.324 114.337L161.296 114.034V113.706L161.24 113.413L161.072 113.181L160.685 113.155L159.234 113.706L158.987 113.968L158.81 114.347L158.787 114.64L158.474 115.438L158.101 115.867L157.859 116.059L157.588 116.2L156.828 116.478L156.003 116.473L155.704 116.443L155.462 116.306L154.725 115.801L154.538 115.594L154.184 115.089L153.913 114.423L153.773 113.948L153.778 113.65L153.694 113.352L153.689 113.059L153.741 112.443L153.927 111.858L154.254 111.332L154.473 111.115L154.893 110.787L155.737 110.489L156.282 110.388L156.6 110.383L157.108 110.58L157.388 110.732L157.593 110.934L157.929 111.115L158.269 111.13L159.64 110.626L159.897 110.489L160.069 110.277L160.051 109.939L159.845 109.686L159.715 109.439L159.314 108.969L158.568 108.424L157.64 108.01L157.266 107.909L156.376 107.833L155.793 107.879L155.089 108.04L153.862 108.52L153.643 108.636L153.414 108.828L152.929 109.151L152.705 109.353L152.547 109.56L152.342 109.757L151.619 110.787L151.535 111.08L151.292 111.59L151.213 111.898L151.031 113.453L151.4 115.372L151.61 115.822L151.805 116.402L152.127 116.917L152.328 117.155L152.458 117.402L152.682 117.609L152.859 117.821L153.68 118.457L154.333 118.775L154.618 118.846L154.879 118.942L155.975 119.124L156.278 119.119L156.502 119.099L156.819 119.089L157.108 119.008L157.374 118.972L157.626 118.871Z" fill="black"/>
<path d="M163.729 115.837L163.995 116.044L164.303 116.104L167.339 114.882L167.596 114.832L168.402 114.463L169.246 114.201L169.494 114.069L169.727 113.817L169.755 113.489L169.689 113.201L169.372 112.302L169.307 112.014L169.032 111.792L168.58 111.807L166.793 112.474L166.551 112.615L166.248 112.706L165.959 112.847L165.618 112.787L165.348 112.383L165.119 111.661L165.138 111.307L165.329 111.05L165.851 110.848L166.112 110.711L166.84 110.474L167.194 110.302L167.488 110.221L167.726 110.11L167.941 109.848L167.983 109.515L167.623 108.353L167.502 108.07L167.288 107.843L167.003 107.772L166.458 107.969L166.201 108.101L165.917 108.212L165.6 108.308L164.536 108.737L164.256 108.666L164.005 108.469L163.827 108.025L163.823 107.55L164.196 107.257L166.775 106.227L167.008 105.955L167.069 105.636L166.84 105.046L166.705 104.788L166.612 104.46L166.56 104.167L166.327 103.93L166.001 103.91L164.919 104.314L164.685 104.44L164.401 104.5L163.818 104.763L163.538 104.839L163.021 105.061L162.769 105.126L161.015 105.864L160.661 106.116L160.633 106.49L160.857 107.066L160.941 107.51L161.244 108.232L161.323 108.545L161.435 108.798L162.307 111.408L162.372 111.731L162.601 112.287L162.769 112.878L162.913 113.17L162.993 113.504L163.1 113.771L163.146 114.049L163.286 114.377L163.384 114.67L163.599 115.226L163.683 115.523L163.729 115.837Z" fill="black"/>
<path d="M90.2641 167.289L90.5346 167.547L90.7957 167.592L91.1035 167.471L91.402 167.405L91.6725 167.299L91.9383 167.143L94.3587 166.178L95.1748 165.709L95.8697 165.143L96.7371 163.86L97.0496 162.977L97.2268 162.088L97.1988 161.78L97.2408 161.452L97.1988 161.139L97.2035 160.841L97.1428 160.518L97.1055 160.184L97.0123 159.942L96.7511 158.988L96.2708 158.235L96.1448 157.942L95.9863 157.705L95.5899 157.2L95.1142 156.826L94.923 156.619L94.424 156.306L94.1302 156.205L93.6219 155.958L93.0109 155.817L92.6938 155.776L91.8637 155.806L91.2714 155.907L89.3547 156.64L89.0749 156.72L88.2261 157.084L87.9463 157.16L87.7085 157.271L87.4193 157.367L87.2328 157.624L87.1208 157.978L87.3214 158.579L87.4473 158.856L87.5312 159.154L87.7411 159.7L87.8111 160.038L87.9463 160.311L88.0023 160.619L88.45 161.765L88.5945 162.335L88.8417 162.946L88.8977 163.239L89.0376 163.532L89.1868 164.113L89.6065 165.269L89.6765 165.572L90.1055 166.724L90.2641 167.289ZM92.4886 164.275L92.1202 164.269L91.8917 163.997L91.8217 163.694L91.6771 163.451L91.6212 163.143L90.3667 159.397L90.4413 159.068L90.7771 158.755L91.0662 158.659L91.346 158.533L91.7564 158.407L92.358 158.367L92.9223 158.508L93.3933 158.786L93.6358 159.008L93.8877 159.169L94.34 159.967L94.5313 160.402L94.6991 161.144L94.7131 161.452L94.6851 162.058L94.6012 162.391L94.4939 162.664L94.41 162.957L94.2421 163.189L94.0229 163.441L93.5845 163.775L92.4886 164.275Z" fill="black"/>
<path d="M100.03 163.495L100.296 163.702L100.604 163.763L103.64 162.541L103.896 162.49L104.703 162.122L105.547 161.859L105.794 161.728L106.028 161.475L106.056 161.147L105.99 160.859L105.673 159.96L105.608 159.673L105.333 159.45L104.88 159.466L103.094 160.132L102.852 160.274L102.549 160.364L102.26 160.506L101.919 160.445L101.649 160.041L101.42 159.319L101.439 158.966L101.63 158.708L102.152 158.506L102.413 158.37L103.141 158.133L103.495 157.961L103.789 157.88L104.027 157.769L104.242 157.506L104.283 157.173L103.924 156.012L103.803 155.729L103.589 155.502L103.304 155.431L102.759 155.628L102.502 155.759L102.218 155.87L101.9 155.966L100.837 156.395L100.557 156.325L100.305 156.128L100.128 155.683L100.124 155.209L100.497 154.916L103.076 153.886L103.309 153.613L103.369 153.295L103.141 152.704L103.006 152.447L102.912 152.119L102.861 151.826L102.628 151.588L102.301 151.568L101.22 151.972L100.986 152.098L100.702 152.159L100.119 152.421L99.8391 152.497L99.3215 152.719L99.0696 152.785L97.3161 153.522L96.9617 153.775L96.9337 154.148L97.1576 154.724L97.2415 155.168L97.5446 155.891L97.6239 156.204L97.7358 156.456L98.6079 159.067L98.6732 159.39L98.9017 159.945L99.0696 160.536L99.2142 160.829L99.2935 161.162L99.4007 161.43L99.4474 161.708L99.5873 162.036L99.6852 162.329L99.8997 162.884L99.9837 163.182L100.03 163.495Z" fill="black"/>
<path d="M110.864 159.858L111.27 159.747L111.694 159.565L112.926 158.767L113.485 158.086L113.812 157.596L114.031 156.98L114.147 156.409L114.166 156.106L114.147 155.783L114.101 155.505L113.812 154.591L113.676 154.319L113.513 154.066L113.065 153.632L112.59 153.309L112.291 153.193L111.461 153.122L110.258 153.263L108.836 153.607L108.197 153.612L107.954 153.571L107.66 153.425L107.516 153.036L107.432 152.642L107.511 152.38L107.674 152.097L107.833 151.94L108.057 151.784L108.91 151.415L109.246 151.42L109.507 151.511L110.123 151.849L110.589 151.834L111.489 151.511L111.718 151.39L111.984 151.319L112.184 151.041L112.212 150.718L111.914 150.188L111.522 149.749L111.27 149.587L111.055 149.405L110.808 149.254L109.731 148.951L108.896 148.966L108.593 149.017L108.341 149.082L108.024 149.128L107.273 149.436L106.285 150.087L106.079 150.284L105.912 150.516L105.725 150.688L105.515 150.966L105.389 151.228L105.207 151.501L105.142 151.809L105.03 152.066L105.021 152.364L104.965 152.652L105.058 153.571L105.399 154.541L105.632 154.914L105.977 155.354L106.476 155.707L106.98 155.934L107.553 156.056L108.411 156.035L108.938 155.96L110.071 155.616L110.328 155.566L110.603 155.475L111.158 155.5L111.405 155.601L111.601 155.955L111.648 156.364L111.498 156.657L111.331 156.869L110.883 157.227L110.51 157.389L110.099 157.52L109.759 157.55L109.521 157.53L109.227 157.464L108.957 157.338L108.658 157.126L108.346 157.116L107.315 157.49L107.054 157.621L106.779 157.712L106.555 157.949L106.564 158.293L106.695 158.606L106.84 158.843L107.25 159.343L107.735 159.666L108.271 159.934L108.551 160.004L109.684 160.105L109.992 160.035H110.286L110.864 159.858Z" fill="black"/>
<path d="M116.013 157.226L116.251 157.478H116.554L120.565 155.938L120.774 155.691L120.835 155.368L120.728 155.049L120.611 154.797L120.355 153.893L120.084 153.716L119.077 153.767L118.83 153.53L118.457 152.323L118.21 151.762L118.06 151.131L117.888 150.702L117.762 150.237L117.641 149.975L117.571 149.672L117.44 149.374L117.235 148.763L117.295 148.44L117.501 148.182L117.79 148.051L117.995 147.788L118.051 147.455L117.762 146.591L117.701 146.319L117.575 146.041L117.37 145.789L116.894 145.829L115.178 146.485L114.894 146.627L114.068 146.935L113.816 147.051L113.28 147.228L113.033 147.49L112.986 147.854L113.08 148.132L113.136 148.389L113.243 148.712L113.369 148.99L113.462 149.268L113.686 149.495L114.614 149.48L114.875 149.672L115.248 150.929L115.346 151.171L115.5 151.49L115.687 152.09L115.756 152.393L115.999 152.944L116.027 153.262L116.293 153.868L116.456 154.449L116.428 154.822L115.64 155.474L115.575 155.817L115.64 156.105L116.013 157.226Z" fill="black"/>
<path d="M126.617 153.748L126.971 153.626L127.675 153.268L127.922 153.101L128.174 152.985L128.379 152.824L129.219 151.965L129.349 151.718L129.69 151.238L129.932 150.632L130.133 149.779L130.217 148.986L130.184 148.289L130.105 148.006L130.086 147.683L129.769 146.552L129.634 146.279L129.373 146.052L128.939 146.072L125.558 147.395L125.194 147.723L125.166 148.047L125.507 149.153L125.651 149.405L125.815 149.622L126.113 149.652L126.369 149.551L126.621 149.486L127.419 149.127L127.661 149.213L127.797 149.44L127.764 149.718L127.512 150.279L127.335 150.481L126.882 150.854L126.626 151.006L126.244 151.172L125.815 151.304L125.553 151.344L125.274 151.334L124.7 151.248L124.178 151.056L123.944 150.869L123.753 150.662L123.52 150.455L123.333 150.218L122.765 148.789L122.737 148.208L122.695 147.895L122.713 147.274L122.928 146.729L123.259 146.219L123.45 146.012L123.912 145.618L124.285 145.456L125.012 145.269L125.292 145.239L126.118 145.431L126.332 145.608L126.705 145.729L127.05 145.754L128.37 145.239L128.617 145.108L128.818 144.931L128.804 144.573L128.011 143.664L127.755 143.532L127.265 143.199L126.729 142.926L125.609 142.674L125.283 142.704L125.036 142.684L124.751 142.75L124.425 142.775L123.068 143.224L122.294 143.694L121.403 144.492L121.202 144.714L120.694 145.476L120.428 146.042L120.335 146.36L120.279 146.648L120.144 146.931L120.088 147.264L120.041 148.536L120.116 148.804L120.186 149.506L120.456 150.223L120.563 150.642L120.68 150.945L121.286 151.975L121.836 152.667L122.079 152.889L122.783 153.354L123.301 153.626L124.373 153.919L124.658 153.955L125.511 153.95L126.323 153.828L126.617 153.748Z" fill="black"/>
<path d="M139.812 148.112L140.269 148.147L140.657 148.127L140.913 147.844L140.932 147.491L139.673 143.496L139.481 143.108L139.402 142.779L138.763 141.047L138.609 140.452L138.488 140.184L138.292 139.598L138.25 139.285L138.078 138.861L137.849 138.088L137.602 137.892L137.257 137.861L136.977 137.937L136.72 138.038L136.436 138.184L136.138 138.25L135.904 138.376L135.629 138.467L135.354 138.74L135.321 139.098L136.198 141.759L136.352 142.042L136.445 142.32L136.497 142.648L136.702 143.224L136.716 143.486L136.506 143.502L135.694 143.077L135.433 142.981L134.785 142.643L134.51 142.552L134.295 142.406L133.904 142.194L133.363 141.982L133.139 141.82L132.822 141.729L132.612 141.563L132.323 141.477L132.066 141.3L131.073 140.78L130.401 140.598L129.996 140.623L129.734 140.926L129.651 141.275L130.359 143.305L130.429 143.608L130.672 144.188L130.732 144.461L130.849 144.764L130.91 145.087L131.661 147.147L131.721 147.42L131.814 147.698L131.894 148.031L131.987 148.309L132.132 148.597L132.318 149.202L132.444 149.485L132.589 150.051L132.724 150.329L132.817 150.606L133.046 150.879L133.353 150.94L133.806 150.732L134.491 150.51L134.762 150.354L135.079 150.263L135.303 150.01L135.326 149.672L135.186 149.399L134.03 145.809L133.876 145.521L133.95 145.294L134.142 145.269L136.748 146.557L137.028 146.663L138.81 147.566L139.062 147.728L139.341 147.834L139.575 147.991L139.812 148.112Z" fill="black"/>
</svg>
