<svg width="17" height="42" viewBox="0 0 17 42" fill="none" xmlns="http://www.w3.org/2000/svg">
<mask id="mask0_1106_35793" style="mask-type:luminance" maskUnits="userSpaceOnUse" x="-316" y="-158" width="415" height="419">
<path d="M-315.41 -38.7117L-22.8049 -157.39L98.1791 141.89L-194.426 260.568L-315.41 -38.7117Z" fill="white"/>
</mask>
<g mask="url(#mask0_1106_35793)">
<mask id="mask1_1106_35793" style="mask-type:luminance" maskUnits="userSpaceOnUse" x="-316" y="-158" width="415" height="419">
<path d="M-315.41 -38.7117L-22.8049 -157.39L98.1791 141.89L-194.426 260.568L-315.41 -38.7117Z" fill="white"/>
</mask>
<g mask="url(#mask1_1106_35793)">
<path d="M15.1994 40.5017C9.33026 35.4149 5.23016 28.285 2.71183 20.6826C0.998254 15.4708 0.0200594 9.65433 1.79607 4.45635C2.19845 2.92059 3.06565 1.71838 4.39766 0.856687C6.41649 -0.185686 8.87238 1.02347 10.3223 2.8233C12.7019 5.83924 13.021 10.0643 13.243 14.0115L14.6791 40.453L14.4016 37.9861" fill="#FF968A"/>
</g>
</g>
</svg>
