<svg width="253" height="265" viewBox="0 0 253 265" fill="none" xmlns="http://www.w3.org/2000/svg">
<path d="M24.4976 252.928C24.6387 254.185 24.8188 255.531 25.7047 256.467C26.8146 257.647 28.6399 257.794 30.2803 257.862L200.658 264.844C207.205 265.117 214.137 265.302 219.861 262.216C231.008 256.204 232.167 241.464 231.982 229.143L228.784 15.31C228.745 12.9452 228.686 10.4878 227.601 8.36686C224.115 1.56999 213.854 2.90596 206.31 4.9928C178.165 12.7795 149.012 16.5387 119.845 18.1526C105.364 18.962 90.8584 19.235 76.3528 19.2302C63.6287 19.2302 48.5925 16.6509 36.1507 19.5763C11.1164 25.4663 22.1173 52.9756 23.5094 70.8357C25.7826 99.9589 24.5122 129.175 23.4169 158.308C22.2341 189.835 21.0756 221.493 24.4976 252.928Z" fill="#FFD1EC"/>
<path d="M0 29.479H206.296V245.506H0V29.479Z" fill="#FFB0DE"/>
<path d="M94.7639 18.689C95.1046 16.0609 95.6206 13.4719 96.3166 10.9121C96.9494 8.75695 97.8548 6.5287 99.4368 4.97332C100.104 4.29559 100.878 3.80313 101.773 3.49108C101.627 3.53983 101.71 3.49108 101.885 3.57397C102.075 3.65198 102.255 3.74462 102.426 3.85189C102.927 4.16394 103.35 4.554 103.711 5.02208C103.857 5.21711 103.959 5.43652 104.095 5.64131C104.227 5.84609 104.197 5.87047 104.154 5.71932C104.197 5.94848 104.222 6.18252 104.231 6.41656L104.548 9.32254C104.738 11.1363 104.913 12.9501 105.083 14.7591C106.422 29.0891 106.948 43.6092 104.679 57.8709C103.808 63.3709 102.109 69.8849 96.3604 72.1083L97.7526 72.2887C94.7493 70.1287 93.9899 66.4134 93.8439 62.9125C93.6784 58.9436 94.2138 54.9698 93.9753 51.0399C93.8439 48.7727 90.3099 48.7581 90.4414 51.0399C90.8454 57.8466 88.7377 65.7502 92.6221 71.9035C93.5518 73.3711 95.6108 76.1357 97.5774 75.4629C99.4709 74.7802 101.121 73.7124 102.523 72.2692C105.186 69.5485 106.558 65.8624 107.498 62.2494C108.106 59.5628 108.534 56.8519 108.788 54.1117C109.109 51.5275 109.347 48.9238 109.484 46.3202C109.815 41.1664 109.849 35.9932 109.688 30.8346C109.513 25.5346 109.128 20.2395 108.642 14.9687C108.398 12.3602 108.126 9.74674 107.848 7.1333C107.829 5.92898 107.556 4.78317 107.035 3.70074C106.456 2.73045 105.711 1.91132 104.796 1.24821C103.925 0.531464 102.932 0.112144 101.807 0C100.761 0.02438 99.8068 0.331555 98.9452 0.921527C97.1928 1.98933 95.8299 3.42282 94.8466 5.22199C92.6805 9.01537 91.9844 13.4914 91.3614 17.7479C91.3078 17.9771 91.2981 18.2014 91.3322 18.4354C91.3614 18.6646 91.4392 18.8791 91.5512 19.079C91.668 19.2838 91.8141 19.4593 91.9942 19.6056C92.1743 19.7519 92.3738 19.8592 92.5977 19.9274C92.8217 19.9859 93.0504 20.0006 93.2792 19.9713C93.5129 19.942 93.7319 19.8689 93.9315 19.7519C94.1359 19.6397 94.3063 19.4886 94.4523 19.3033C94.5935 19.1229 94.7006 18.9181 94.7639 18.689Z" fill="#C1997E"/>
<mask id="mask0_1116_36937" style="mask-type:luminance" maskUnits="userSpaceOnUse" x="148" y="128" width="95" height="137">
<path d="M148.824 128.946H242.283V265H148.824V128.946Z" fill="white"/>
</mask>
<g mask="url(#mask0_1116_36937)">
<path d="M169.852 253.542C198.337 226.31 217.073 188.318 221.352 149.136" stroke="#FF968A" stroke-width="1.5063" stroke-miterlimit="10"/>
</g>
<path d="M220.934 158.303C217.916 152.403 216.957 145.455 217.396 138.638C217.702 133.977 218.788 129.067 221.854 125.527C222.662 124.445 223.733 123.772 225.062 123.519C226.99 123.343 228.542 125.079 229.117 126.976C230.037 130.116 228.932 133.558 227.846 136.747L220.54 158.103L221.1 156.06" fill="#FF94D2"/>
<path d="M201.096 150.818C200.843 149.092 200.955 146.927 202.454 146.04C210.446 153.022 213.683 164.105 216.565 174.612C218.308 171.16 220.508 168.025 223.166 165.212C225.819 162.393 228.817 160.019 232.166 158.078C233.286 157.332 234.522 156.903 235.865 156.781C236.187 156.757 236.503 156.786 236.819 156.869C237.131 156.952 237.423 157.084 237.696 157.264C237.963 157.44 238.202 157.659 238.401 157.913C238.601 158.171 238.752 158.449 238.859 158.756C239.229 160.155 238.358 161.55 237.467 162.715C233.217 168.084 221.968 179.137 214.876 175.163C207.784 171.194 202.24 158.595 201.096 150.818Z" fill="#FF94D2"/>
<path d="M189.912 165.982C188.7 161.618 187.741 156.962 188.652 152.915C188.734 152.398 188.934 151.93 189.245 151.516C190.024 150.638 191.431 151.116 192.487 151.92C195.048 153.895 196.664 157.347 197.881 160.677C199.516 165.095 200.772 169.649 202.023 174.183L205.148 185.5C205.83 187.816 206.394 190.161 206.837 192.536C207.144 194.374 208.624 200.995 205.635 199.518C203.376 198.387 200.68 192.043 199.36 189.596C195.345 182.077 192.195 174.203 189.912 165.982Z" fill="#FF94D2"/>
<path d="M239.542 174.047C242.545 172.165 245.67 170.341 248.932 169.971C250.037 169.844 251.312 169.971 251.877 171.155C252.441 172.345 251.959 174.061 251.346 175.349C248.839 180.639 244.702 184.422 240.501 187.484C232.411 193.53 223.449 197.685 213.612 199.937C212.424 200.196 208.369 201.795 208.073 199.806C207.771 197.816 211.383 195.486 212.41 194.554C216.523 190.873 220.728 187.392 225.022 184.115C229.763 180.536 234.601 177.182 239.542 174.047Z" fill="#FF94D2"/>
<path d="M224.467 218.129C216.703 221.069 208.442 222.025 200.294 221.947C199.048 221.947 197.436 221.542 197.422 220.25C197.451 219.757 197.621 219.328 197.938 218.953C199.16 217.276 201.151 216.447 203.039 215.711C214.371 211.298 226.905 205.369 238.778 203.263C244.736 202.209 242.2 206.208 238.889 209.387C234.664 213.263 229.855 216.179 224.467 218.129Z" fill="#FF94D2"/>
<path d="M173.915 181.965C173.229 180.385 172.835 178.737 172.732 177.016C172.732 175.261 173.37 173.345 174.709 172.457C176.047 171.57 177.907 171.994 179.114 173.106C180.316 174.217 181.061 175.851 181.772 177.45C185.121 184.959 188.314 192.56 191.356 200.254C192.914 204.199 198.156 212.765 197.265 217.329C196.345 222.025 190.665 213.263 189.244 211.391C185.899 206.915 182.984 202.175 180.501 197.168C178.374 192.95 174.558 186.943 173.915 181.965Z" fill="#FF94D2"/>
<path d="M172.724 212.444C172.251 208.953 172.027 205.203 173.128 202.175C173.244 201.78 173.444 201.439 173.726 201.146C174.422 200.561 175.44 201.093 176.165 201.844C177.922 203.667 178.784 206.524 179.378 209.24C180.171 212.858 180.653 216.52 181.14 220.182L182.347 229.304C182.629 231.181 182.814 233.063 182.902 234.955C182.946 236.413 183.384 241.713 181.252 240.221C179.64 239.095 178.243 233.868 177.499 231.84C175.206 225.55 173.614 219.085 172.724 212.444Z" fill="#FF94D2"/>
<path d="M211.604 227.734C214.203 226.935 216.875 226.208 219.373 226.603C220.21 226.744 221.13 227.13 221.32 228.134C221.505 229.138 220.818 230.352 220.108 231.22C217.202 234.711 213.395 236.701 209.657 238.202C202.467 241.099 195 242.371 187.261 242.015C186.326 241.967 183.001 242.323 183.177 240.743C183.352 239.163 186.472 238.159 187.426 237.671C191.199 235.74 195 233.975 198.836 232.386C203.076 230.606 207.33 229.055 211.604 227.734Z" fill="#FF94D2"/>
<path d="M40.596 138.116L41.1947 138.087L41.4625 137.936L41.6134 137.653V136.17L41.4332 135.888L41.1071 135.722H40.7907L40.4305 135.6L40.2504 135.259L40.2991 134.971L40.2845 133.323L40.3137 132.996L40.2504 131.914L40.3137 130.402L40.4159 130.061L40.7469 129.925L41.0438 129.881L41.3602 129.759L41.5111 129.52L41.5257 128.038L41.3456 127.75L41.073 127.589H39.2671L38.9946 127.56L38.6976 127.618H37.471L37.1886 127.574H36.843L36.5461 127.721L36.3952 128.082L36.439 129.188L36.4098 129.476L36.5753 129.773L36.9015 129.939H37.2033L37.4856 130.12L37.6219 130.524L37.6657 135.122L37.5002 135.571L36.512 135.868L36.3514 136.141L36.3027 137.516L36.4536 137.921L36.7554 138.057H37.0378L37.3201 138.028L37.7533 138.087L38.2206 138.072L38.5175 138.043L39.1162 138.101L39.5641 138.043H40.2991L40.596 138.116Z" fill="black"/>
<path d="M51.1995 137.818L51.6376 138.013L52.0222 138.131L52.3678 137.97L52.5041 137.653L52.5771 133.577L52.5187 133.157L52.5479 132.831L52.4895 131.031L52.5333 130.432L52.5041 130.149V129.549L52.5625 129.252L52.5333 128.803L52.5625 128.023L52.3824 127.75L52.0562 127.604L51.7544 127.574H51.4721L51.1411 127.604L50.8296 127.56L50.557 127.589L50.2601 127.574L49.8999 127.721L49.749 128.038L49.7344 130.763L49.7976 131.075V131.363L49.7344 131.675L49.749 132.275L49.676 132.514L49.4666 132.455L48.8095 131.782L48.5856 131.602L48.0599 131.061L47.8214 130.885L47.6559 130.675L47.3443 130.344L46.8819 129.954L46.7164 129.729L46.4341 129.534L46.2832 129.31L46.0301 129.13L45.8354 128.876L45.0273 128.052L44.4286 127.648L44.0246 127.526L43.6644 127.706L43.4697 127.994L43.4989 130.09L43.4697 130.388L43.5135 131.002L43.4843 131.27L43.4989 131.587L43.4551 131.899L43.5135 134.045L43.4843 134.313V134.596L43.4551 134.927V135.21L43.4989 135.527L43.4843 136.141L43.5135 136.439L43.4697 137.009L43.5135 137.307V137.594L43.6498 137.921L43.9321 138.087L44.4432 138.057L45.1928 138.101L45.5044 138.057L45.85 138.087L46.1469 137.935L46.2832 137.638L46.2394 137.341L46.2832 133.669L46.2248 133.352L46.3708 133.177L46.5655 133.221L48.7024 135.317L48.9458 135.512L50.3964 136.965L50.5911 137.204L50.8296 137.399L51.0097 137.623L51.1995 137.818Z" fill="black"/>
<path d="M56.5271 137.594L56.644 137.906L56.9603 138.057L57.2427 138.028L57.5445 138.057L57.8268 138.028H58.7565L59.0534 137.906L59.1751 137.609L59.1557 137.321L59.1897 136.98L59.1751 136.38L59.1265 136.127L59.1751 135.81L59.2043 134.898L59.1751 134.63L59.2189 133.996L59.1557 131.017L59.2043 130.719L59.1751 130.388L59.292 130.12L59.623 129.983L59.8761 129.968L60.173 129.983L60.4456 129.954L61.2682 129.968L61.609 129.832L61.7599 129.534L61.7307 129.222L61.7599 127.994L61.609 127.691L61.312 127.54L60.9518 127.574L60.7133 127.54H60.431L60.1 127.589H59.8031L59.5013 127.56H59.2043L58.8587 127.604L54.4048 127.574L54.0738 127.721L53.9229 128.023L53.9083 129.52L54.0738 129.851L54.3708 129.998L54.7602 129.954L56.0939 129.968L56.3616 130.134L56.5125 130.417L56.5563 132.065L56.5125 132.528L56.5417 132.816L56.5125 133.113V133.713L56.5563 134.147L56.4979 134.596L56.5125 134.898L56.4979 135.21L56.5417 136.127L56.5125 136.424L56.5271 137.594Z" fill="black"/>
<path d="M63.09 137.623L63.2847 137.906L63.567 138.072L66.95 138.043L67.2177 138.087L68.128 138.043L69.0431 138.101L69.3254 138.072L69.6418 137.921L69.7733 137.638L69.8073 137.355L69.7879 136.424L69.8219 136.141L69.6272 135.839L69.1745 135.693L67.2031 135.659L66.9208 135.707L66.5898 135.678L66.2588 135.707L65.9473 135.527L65.811 135.064L65.8256 134.327L65.9619 134.015L66.2296 133.85H66.8137L67.1155 133.82L67.9041 133.864L68.3081 133.835L68.6245 133.864L68.8922 133.85L69.194 133.684L69.34 133.401L69.3693 132.216L69.34 131.914L69.2086 131.631L68.9506 131.465L68.3568 131.451L68.055 131.48H67.7435L67.3978 131.451L66.215 131.465L65.9619 131.304L65.7818 131.031L65.7526 130.568L65.9035 130.134L66.3659 129.998L69.2378 129.983L69.5494 129.817L69.7149 129.549L69.6856 128.935L69.6418 128.652L69.6564 128.32L69.7003 128.038L69.5494 127.735L69.2378 127.604L68.0404 127.589L67.7727 127.618L67.4709 127.574L66.8137 127.604L66.5168 127.574L65.9327 127.589L65.665 127.56L63.7033 127.604L63.2701 127.706L63.1192 128.038L63.1484 128.637L63.09 129.071L63.1484 129.832L63.1192 130.149L63.1484 130.417V133.099L63.1046 133.416L63.1484 133.996L63.1192 134.596L63.1678 134.913L63.1338 135.239L63.1484 135.527L63.1046 135.795L63.1338 136.141V136.439L63.1678 137.024L63.1484 137.321L63.09 137.623Z" fill="black"/>
<path d="M71.7339 137.58L71.8361 137.906L72.133 138.057L72.4202 138.072L73.0336 138.028L73.3451 138.057H73.7929L74.2602 137.906L74.3624 137.623L74.3916 137.307L74.3332 136.994L74.377 136.351L74.3478 135.42L74.4841 135.122L74.781 134.971H75.0536L75.3214 134.956L75.6962 135.078L75.9347 135.332L76.3241 135.854L76.4263 136.141L76.8449 136.887L77.0396 137.175L77.1759 137.428L77.356 137.667L77.653 137.936L78.0278 138.028L78.5632 138.057L78.8942 138.028L79.1911 138.057H79.7899L80.1209 138.028L80.4324 137.95L80.4957 137.638L80.301 137.263L79.8191 136.531L79.6876 136.273L79.5075 136.005L79.3566 135.737L79.1619 135.498L78.7141 134.717L78.6703 134.357L78.8358 134.045L79.2544 133.64L79.4345 133.386L79.5368 133.099L79.7023 132.831L79.8045 132.577L79.97 132.007L79.9846 130.822L79.9116 130.539L79.8678 130.251L79.7899 129.954L79.3859 129.13L79.1765 128.906L79.0451 128.681L78.2955 128.111L77.7747 127.843L76.5334 127.589L76.1586 127.56L75.7254 127.574L75.3944 127.56L75.0974 127.589L74.7664 127.56L74.5133 127.589L73.6177 127.56L73.3305 127.604L72.7172 127.54L72.4348 127.589L72.1038 127.574L71.8215 127.706L71.6998 128.023L71.656 132.216L71.6998 132.65V133.401L71.6706 133.713L71.656 134.284L71.6998 134.61L71.656 135.225L71.7144 136.097L71.6852 136.409L71.7339 137.58ZM74.781 132.548L74.5279 132.411L74.377 132.094L74.3332 130.417L74.5133 130.12L74.8103 129.968L75.0536 129.954L75.8714 129.968L76.5626 130.061L77.025 130.344L77.1759 130.568L77.2782 130.807L77.3074 131.241L77.2636 131.646L77.1467 131.948L76.9812 132.202L76.8011 132.382L76.5772 132.484L75.409 132.592L75.112 132.548H74.781Z" fill="black"/>
<path d="M82.0323 137.638L82.1832 137.921L82.6456 138.087L84.2909 138.072L84.5927 137.921L84.7874 137.458L84.7679 136.995L84.802 136.678L84.7533 136.034L84.7679 135.751L84.7533 135.468L84.7874 135.151L84.9188 134.839L85.3667 134.688L87.7031 134.674L87.9855 134.537L88.151 134.24L88.1364 133.908L88.1656 133.011L88.1217 132.723L87.9709 132.411L87.523 132.26H85.2498L84.9042 132.143L84.7387 131.87V130.988L84.7874 130.675L84.7679 130.417L84.9188 130.12L85.352 129.968L85.7853 129.983L86.2185 129.954L86.9535 129.998L87.2504 129.968L87.8638 129.998L88.1656 129.954L88.4479 129.817L88.555 129.52V129.237L88.5842 128.935L88.555 128.652L88.5842 128.335L88.555 128.023L88.4041 127.735L88.1364 127.604L87.7761 127.56L87.2358 127.604L86.9243 127.589L86.6079 127.604L86.3256 127.574L86.0433 127.604H82.4655L82.1832 127.75L82.0177 128.038L82.0761 129.832L82.0469 130.12L82.0323 132.245L82.0761 132.514L82.0469 132.801V133.099L82.0177 133.43L82.0761 133.893L82.0323 136.995L82.0615 137.341L82.0323 137.638Z" fill="black"/>
<path d="M89.2891 137.653L89.3621 137.97L89.6639 138.043H90.9781L91.3676 138.087L91.7132 137.935L91.9809 137.667L92.234 137.16L92.4871 136.873L92.8473 136.726L93.1491 136.756L93.9864 136.741L94.2979 136.785L94.6435 136.741H94.9112L95.2276 136.77L95.9286 136.741L96.4202 136.902L96.7366 137.146L96.8096 137.414L96.9751 137.682L97.2282 137.921L97.6176 138.072L97.8854 138.043L98.4111 138.087L99.3359 138.057L99.6085 137.97L99.6669 137.653L99.5744 137.277L99.4722 137.009L99.2775 136.756L99.1899 136.453L99.039 136.229L98.9465 135.946L98.6934 135.405L98.5912 135.122L98.4403 134.869L98.231 134.313L98.0655 134.074L97.9486 133.772L97.8123 133.518L97.7052 133.221L97.5738 132.996L97.4813 132.694L97.3207 132.426L97.199 132.172L97.0481 131.914L96.9751 131.631L96.6782 131.109L96.5857 130.822L96.318 130.251L96.2401 130.012L96.0162 129.491L95.7192 128.935L95.4807 128.364L95.3444 128.14L95.2568 127.857L94.9842 127.574L94.478 127.438L94.001 127.589L93.7138 127.857L93.6261 128.125L92.9836 129.476L92.8181 129.744L91.9809 131.631L91.9079 131.885L91.7424 132.158L91.5038 132.694L91.2799 133.084L91.1728 133.367L90.9635 133.757L90.8759 134.074L90.7396 134.313L90.6325 134.61L90.2139 135.39L89.7807 136.482L89.6006 136.726L89.4692 137.024L89.2891 137.653ZM93.9085 134.357L93.6261 134.24L93.5823 133.937L94.1762 132.577L94.3125 132.333L94.5072 132.187L94.6873 132.304L94.882 132.889L95.0475 133.143L95.1059 133.386L95.2568 133.684L95.359 133.952L95.3298 134.225L95.0767 134.342L93.9085 134.357Z" fill="black"/>
<path d="M105.452 138.209L106.353 138.252L107.803 137.95L108.626 137.594L108.85 137.443L109.118 137.277L109.371 137.097L109.566 136.902L109.731 136.648L109.984 136.453L110.432 135.678L110.568 135.405L110.641 135.122L110.748 134.82L110.792 134.537L110.705 134.269L110.33 134.103L108.728 134.089L108.402 134.24L108.1 134.522L107.984 134.776L107.414 135.39L106.903 135.644L106.606 135.737L106.294 135.766L105.452 135.751L104.649 135.449L104.362 135.317L104.167 135.108L103.617 134.386L103.496 134.132L103.315 133.547L103.272 132.845L103.286 132.367L103.393 132.094L103.408 131.797L103.496 131.529L103.749 130.987L104.123 130.524L104.615 130.163L104.902 130.042L105.423 129.895L106.353 129.925L106.922 130.027L107.234 130.134L107.667 130.495L107.891 130.734L108.027 130.987L108.295 131.27L108.626 131.407L110.135 131.436L110.432 131.407L110.675 131.27L110.763 130.958L110.641 130.656L110.597 130.388L110.359 129.817L109.804 129.057L109.03 128.35L108.699 128.125L107.847 127.735L107.263 127.574L106.518 127.467H105.155L104.902 127.496L104.615 127.589L104.036 127.706L103.749 127.813L103.525 127.945L103.257 128.052L102.21 128.725L102.03 128.964L101.626 129.339L101.446 129.593L100.76 130.944L100.492 132.816L100.551 133.294V133.893L100.701 134.479L100.818 134.761L100.862 135.03L101.013 135.303L101.12 135.556L101.714 136.424L102.254 136.951L102.507 137.112L102.731 137.292L103.749 137.848L104.05 137.95L104.274 138.014L104.586 138.116L104.902 138.145L105.17 138.209H105.452Z" fill="black"/>
<path d="M112.434 137.623L112.628 137.906L112.911 138.072L116.294 138.043L116.561 138.087L117.472 138.043L118.387 138.101L118.669 138.072L118.985 137.921L119.117 137.638L119.151 137.355L119.131 136.424L119.166 136.141L118.971 135.839L118.518 135.693L116.547 135.659L116.264 135.707L115.933 135.678L115.602 135.707L115.291 135.527L115.155 135.064L115.169 134.327L115.306 134.015L115.573 133.85H116.157L116.459 133.82L117.248 133.864L117.652 133.835L117.968 133.864L118.236 133.85L118.538 133.684L118.684 133.401L118.713 132.216L118.684 131.914L118.552 131.631L118.294 131.465L117.7 131.451L117.399 131.48H117.087L116.741 131.451L115.559 131.465L115.306 131.304L115.125 131.031L115.096 130.568L115.247 130.134L115.71 129.998L118.581 129.983L118.893 129.817L119.058 129.549L119.029 128.935L118.985 128.652L119 128.32L119.044 128.038L118.893 127.735L118.581 127.604L117.384 127.589L117.116 127.618L116.814 127.574L116.157 127.604L115.86 127.574L115.276 127.589L115.009 127.56L113.047 127.604L112.614 127.706L112.463 128.038L112.492 128.637L112.434 129.071L112.492 129.832L112.463 130.149L112.492 130.417V133.099L112.448 133.416L112.492 133.996L112.463 134.596L112.511 134.913L112.477 135.239L112.492 135.527L112.448 135.795L112.477 136.141V136.439L112.511 137.024L112.492 137.321L112.434 137.623Z" fill="black"/>
<path d="M125.098 137.594L125.278 137.921L125.516 138.057H125.862L126.178 138.101H126.475L126.792 138.057L129.478 138.043L130.437 137.906L131.304 137.638L132.574 136.785L133.173 136.097L133.64 135.346L133.713 135.064L133.864 134.776L133.923 134.478L134.025 134.205L134.074 133.893L134.147 133.576L134.132 133.323L134.19 132.367L133.966 131.514L133.937 131.197L133.864 130.929L133.64 130.329L133.295 129.817L133.173 129.564L132.784 129.1L132.53 128.905L132.112 128.501L131.562 128.155L131.26 128.008L130.437 127.735L129.824 127.618L127.702 127.604L127.4 127.574L126.446 127.604L126.144 127.574L125.876 127.589L125.565 127.574L125.292 127.735L125.068 128.023V128.637L125.098 128.935L125.083 129.237L125.112 129.803L125.068 130.134L125.112 130.432L125.068 130.734L125.132 131.933L125.083 132.499L125.132 133.143L125.083 133.43L125.132 133.742L125.083 134.327L125.112 135.527L125.083 135.824L125.132 137.024L125.098 137.594ZM128.271 135.644L127.911 135.512L127.775 135.181L127.804 134.883L127.746 134.61L127.789 134.313V130.461L127.969 130.193L128.403 130.027L128.719 130.041L129.031 130.027L129.478 130.061L130.077 130.237L130.588 130.568L130.963 130.987L131.124 131.27L131.318 131.514L131.499 132.397L131.542 132.86L131.469 133.596L131.382 133.879L131.158 134.42L130.963 134.688L130.768 134.898L130.588 135.137L130.35 135.288L130.048 135.434L129.513 135.585L128.271 135.644Z" fill="black"/>
<path d="M135.927 137.623L136.122 137.906L136.405 138.072L139.788 138.043L140.055 138.087L140.966 138.043L141.881 138.101L142.163 138.072L142.479 137.921L142.611 137.638L142.645 137.355L142.625 136.424L142.659 136.141L142.465 135.839L142.012 135.693L140.041 135.659L139.758 135.707L139.427 135.678L139.096 135.707L138.785 135.527L138.649 135.064L138.663 134.327L138.799 134.015L139.067 133.85H139.651L139.953 133.82L140.742 133.864L141.146 133.835L141.462 133.864L141.73 133.85L142.032 133.684L142.178 133.401L142.207 132.216L142.178 131.914L142.046 131.631L141.788 131.465L141.194 131.451L140.893 131.48H140.581L140.235 131.451L139.053 131.465L138.799 131.304L138.619 131.031L138.59 130.568L138.741 130.134L139.203 129.998L142.075 129.983L142.387 129.817L142.552 129.549L142.523 128.935L142.479 128.652L142.494 128.32L142.538 128.038L142.387 127.735L142.075 127.604L140.878 127.589L140.61 127.618L140.308 127.574L139.651 127.604L139.354 127.574L138.77 127.589L138.502 127.56L136.541 127.604L136.108 127.706L135.957 128.038L135.986 128.637L135.927 129.071L135.986 129.832L135.957 130.149L135.986 130.417V133.099L135.942 133.416L135.986 133.996L135.957 134.596L136.005 134.913L135.971 135.239L135.986 135.527L135.942 135.795L135.971 136.141V136.439L136.005 137.024L135.986 137.321L135.927 137.623Z" fill="black"/>
<path d="M147.756 138.179L148.189 138.223L148.666 138.208L150.131 137.921L150.91 137.502L151.387 137.175L151.806 136.692L152.108 136.214L152.225 135.946L152.317 135.644L152.361 135.376L152.375 134.449L152.332 134.147L152.259 133.864L151.957 133.308L151.597 132.845L151.344 132.635L150.55 132.275L149.323 131.977L147.814 131.782L147.187 131.558L146.963 131.436L146.724 131.197L146.709 130.792L146.753 130.402L146.919 130.193L147.172 129.998L147.381 129.91L147.649 129.851L148.608 129.817L148.939 129.939L149.163 130.12L149.654 130.641L150.117 130.792L151.105 130.822L151.373 130.792L151.66 130.822L151.942 130.641L152.079 130.358L151.957 129.773L151.718 129.237L151.524 128.993L151.373 128.754L151.178 128.53L150.224 127.872L149.401 127.589L149.085 127.526L148.817 127.496L148.486 127.423L147.649 127.438L146.471 127.677L146.198 127.784L145.96 127.93L145.721 128.023L145.424 128.203L145.215 128.398L144.943 128.574L144.782 128.832L144.587 129.027L144.48 129.296L144.329 129.534L144.12 130.402L144.134 131.407L144.242 131.826L144.436 132.353L144.811 132.845L145.23 133.235L145.751 133.547L146.602 133.835L147.143 133.952L148.369 134.045L148.637 134.088L148.939 134.103L149.474 134.327L149.684 134.508L149.762 134.898L149.669 135.288L149.431 135.498L149.192 135.629L148.637 135.795L148.218 135.81L147.771 135.78L147.425 135.693L147.201 135.585L146.933 135.42L146.709 135.21L146.486 134.912L146.184 134.791L145.05 134.761L144.748 134.791L144.451 134.776L144.154 134.912L144.047 135.225L144.076 135.556L144.134 135.824L144.378 136.424L144.748 136.887L145.181 137.321L145.439 137.487L146.515 137.984L146.841 138.028L147.128 138.13L147.756 138.179Z" fill="black"/>
<path d="M153.674 137.623L153.825 137.935L154.127 138.043L158.566 138.072L158.848 137.921L159.014 137.653V137.321L158.984 137.053L159.028 136.141L158.819 135.888L157.816 135.571L157.656 135.273L157.685 134.045L157.622 133.445L157.685 132.816L157.656 132.367L157.685 131.899L157.656 131.616L157.685 131.319L157.656 131.002V130.373L157.816 130.105L158.103 129.939L158.43 129.924L158.717 129.759L158.882 129.476V128.589L158.911 128.32L158.882 128.023L158.761 127.721L158.284 127.589L156.38 127.574L156.054 127.604L155.144 127.589L154.857 127.604L154.273 127.574L153.946 127.721L153.781 128.038V128.32L153.752 128.574V128.905L153.781 129.203V129.491L153.932 129.773L154.842 130.09L155.037 130.358L154.993 131.631L155.008 131.885L155.051 132.231L155.037 132.845L155.008 133.143L155.066 133.728L154.993 134.03L155.051 134.674L155.022 135.259L154.871 135.585L153.883 135.902L153.708 136.185L153.674 136.468V137.623Z" fill="black"/>
<path d="M165.219 138.238L165.608 138.252L166.417 138.179L166.718 138.116L167.001 138.101L167.254 138.028L168.359 137.55L168.568 137.37L169.065 137.053L169.498 136.59L169.975 135.888L170.32 135.195L170.515 134.552L170.53 134.269L170.617 133.967L170.681 132.83L170.632 132.528L170.457 132.231L170.019 132.094H166.266L165.803 132.26L165.672 132.548L165.638 133.669L165.701 133.952L165.789 134.205L166.071 134.342H166.358L166.626 134.371L167.521 134.327L167.731 134.493L167.794 134.747L167.672 134.986L167.239 135.405L167.001 135.527L166.431 135.707L166.134 135.751L165.701 135.766L165.234 135.736L164.966 135.678L164.698 135.571L164.158 135.288L163.71 134.927L163.545 134.674L163.428 134.42L163.262 134.147L163.155 133.864L163.068 132.367L163.233 131.826L163.291 131.529L163.515 130.973L163.905 130.553L164.396 130.207L164.654 130.09L165.234 129.895L165.652 129.881L166.431 129.968L166.718 130.042L167.463 130.51L167.614 130.749L167.94 130.987L168.271 131.139H169.736L170.019 131.109L170.277 131.017L170.379 130.69L169.902 129.578L169.692 129.369L169.318 128.891L168.884 128.457L167.867 127.828L167.541 127.735L167.298 127.633L167.001 127.589L166.67 127.496L165.19 127.423L164.28 127.574L163.141 127.979L162.873 128.111L162.123 128.623L161.675 129.042L161.481 129.296L161.335 129.534L161.111 129.744L160.945 130.027L160.483 131.168L160.463 131.436L160.303 132.094L160.332 132.845L160.303 133.264L160.317 133.576L160.57 134.732L160.882 135.556L161.047 135.839L161.588 136.517L162.006 136.951L162.96 137.594L163.233 137.726L164.07 138.028L164.908 138.208L165.219 138.238Z" fill="black"/>
<path d="M180.026 137.818L180.464 138.013L180.848 138.131L181.194 137.97L181.33 137.653L181.403 133.577L181.345 133.157L181.374 132.831L181.316 131.031L181.359 130.432L181.33 130.149V129.549L181.389 129.252L181.359 128.803L181.389 128.023L181.209 127.75L180.882 127.604L180.581 127.574H180.298L179.967 127.604L179.656 127.56L179.383 127.589L179.086 127.574L178.726 127.721L178.575 128.038L178.561 130.763L178.624 131.075V131.363L178.561 131.675L178.575 132.275L178.502 132.514L178.293 132.455L177.636 131.782L177.412 131.602L176.886 131.061L176.648 130.885L176.482 130.675L176.171 130.344L175.708 129.954L175.543 129.729L175.26 129.534L175.109 129.31L174.856 129.13L174.662 128.876L173.854 128.052L173.255 127.648L172.851 127.526L172.491 127.706L172.296 127.994L172.325 130.09L172.296 130.388L172.34 131.002L172.31 131.27L172.325 131.587L172.281 131.899L172.34 134.045L172.31 134.313V134.596L172.281 134.927V135.21L172.325 135.527L172.31 136.141L172.34 136.439L172.296 137.009L172.34 137.307V137.594L172.476 137.921L172.758 138.087L173.269 138.057L174.019 138.101L174.331 138.057L174.676 138.087L174.973 137.935L175.109 137.638L175.066 137.341L175.109 133.669L175.051 133.352L175.197 133.177L175.392 133.221L177.529 135.317L177.772 135.512L179.223 136.965L179.417 137.204L179.656 137.399L179.836 137.623L180.026 137.818Z" fill="black"/>
</svg>
