<svg width="24" height="24" viewBox="0 0 24 24" fill="none" xmlns="http://www.w3.org/2000/svg">
<svg xmlns="http://www.w3.org/2000/svg" width="24" height="25" viewBox="0 0 24 25" fill="none">
<path d="M8.38028 9.33864C9.07627 10.7883 10.0251 12.1469 11.2266 13.3485C12.4282 14.5501 13.7869 15.4988 15.2365 16.1948C15.3612 16.2547 15.4235 16.2846 15.5024 16.3076C15.7828 16.3894 16.127 16.3307 16.3644 16.1607C16.4313 16.1128 16.4884 16.0557 16.6027 15.9413C16.9523 15.5917 17.1271 15.4169 17.3029 15.3027C17.9658 14.8717 18.8204 14.8717 19.4833 15.3027C19.6591 15.4169 19.8339 15.5917 20.1835 15.9413L20.3783 16.1362C20.9098 16.6677 21.1755 16.9334 21.3198 17.2188C21.6069 17.7863 21.6069 18.4566 21.3198 19.0241C21.1755 19.3095 20.9098 19.5752 20.3783 20.1067L20.2207 20.2643C19.6911 20.7939 19.4263 21.0588 19.0662 21.261C18.6667 21.4854 18.0462 21.6468 17.588 21.6454C17.1751 21.6442 16.8928 21.5641 16.3284 21.4039C13.295 20.5429 10.4326 18.9184 8.04466 16.5305C5.65668 14.1425 4.03221 11.2801 3.17124 8.24673C3.01103 7.68228 2.93092 7.40006 2.9297 6.98711C2.92833 6.52889 3.08969 5.9084 3.31411 5.50889C3.51636 5.14886 3.78117 4.88405 4.3108 4.35442L4.46843 4.19679C4.99987 3.66535 5.2656 3.39963 5.55098 3.25528C6.11854 2.96821 6.7888 2.96821 7.35636 3.25528C7.64174 3.39962 7.90747 3.66535 8.43891 4.19679L8.63378 4.39166C8.98338 4.74127 9.15819 4.91607 9.27247 5.09185C9.70347 5.75474 9.70347 6.60932 9.27247 7.27221C9.15819 7.44799 8.98338 7.62279 8.63378 7.97239C8.51947 8.08671 8.46231 8.14386 8.41447 8.21067C8.24446 8.4481 8.18576 8.79236 8.26748 9.07272C8.29048 9.15161 8.32041 9.21395 8.38028 9.33864Z" stroke="white" stroke-width="2" stroke-linecap="round" stroke-linejoin="round"/>
</svg>
